<svg id="Capa_1" enable-background="new 0 0 497 497" height="512" viewBox="0 0 497 497" width="512" xmlns="http://www.w3.org/2000/svg"><g><path d="m287.871 105.413-29.121 5.404-50.621-4.404c0-16.997 10.502-31.543 25.372-37.497 4.636-1.856 9.696-1.877 14.995-1.877 22.304 0 39.375 16.078 39.375 38.374z" fill="#e5646e"/><path d="m288.87 106.408-21.097 10-8.903-10c0-16.99-10.5-31.53-25.37-37.49 4.64-1.86 9.7-2.88 15-2.88 22.3 0 40.37 18.08 40.37 40.37z" fill="#db4655"/><path d="m473.819 452.156-19.952 1h-430.686c-2.761 0-5-2.239-5-5v-51.313c0-2.761 2.239-5 5-5h450.638c2.762 0 4 2.239 4 5v51.313c0 2.761-1.238 4-4 4z" fill="#e5646e"/><path d="m478.82 396.838v51.32c0 2.76-2.24 5-5 5h-20c2.76 0 5-2.24 5-5v-51.32c0-2.76-2.24-5-5-5h20c2.76 0 5 2.24 5 5z" fill="#db4655"/><path d="m300.548 107.411-29.997-1h-74.098c-2.761 0-5 2.239-5 5v36.183c0 2.761 2.239 5 5 5h104.096c2.761 0 5-2.239 5-5l-1-36.183c-.001-2.761-1.24-4-4.001-4z" fill="#c3ddff"/><path d="m305.55 111.408v36.19c0 2.76-2.24 5-5 5h-30c2.76 0 5-2.24 5-5v-36.19c0-2.76-2.24-5-5-5h30c2.76 0 5 2.24 5 5z" fill="#a4ccff"/><path d="m487 298.468v112.74c0 2.76-2.24 4-5 4l-19.34 1h-161.66l-8.705-10-6.294 10h-281.001c-2.761 0-5-2.239-5-5v-72.003l10-20.366-10-20.37v-139.33c0-13.807 11.193-25 25-25h261l7.499 10 7.5-10h35.17l60.46 10c3.58 0 6.88 1.91 8.67 5.01z" fill="#f3f0f3"/><g><g><path d="m286.685 63.315c-1.529 0-3.071-.466-4.402-1.433-3.352-2.435-4.094-7.125-1.659-10.476l18.417-25.349c2.435-3.352 7.128-4.092 10.476-1.66 3.352 2.435 4.094 7.125 1.659 10.476l-18.417 25.349c-1.467 2.02-3.755 3.093-6.074 3.093z" fill="#db4655"/></g><g><path d="m210.314 63.315c-2.319 0-4.605-1.072-6.073-3.092l-18.417-25.349c-2.435-3.351-1.692-8.041 1.659-10.476 3.352-2.434 8.041-1.691 10.476 1.66l18.417 25.349c2.434 3.351 1.692 8.041-1.659 10.476-1.331.966-2.874 1.432-4.403 1.432z" fill="#e5646e"/></g><g><path d="m248.5 50.905c-4.143 0-7.5-3.358-7.5-7.5v-31.333c0-4.142 3.357-7.5 7.5-7.5s7.5 3.358 7.5 7.5v31.334c0 4.141-3.357 7.499-7.5 7.499z" fill="#e5646e"/></g></g><path d="m487 298.468 10 81.141v31.599c0 2.76-2.24 5-5 5h-30c2.76 0 5-2.24 5-5v-112.74l-91.7-159.32c-1.79-3.1-5.09-4.01-8.67-4.01h20c3.58 0 6.88.91 8.67 4.01z" fill="#e2dee2"/><path d="m496 297.468-29 1h-130.83v-164.33h31.83l28.63 1c3.58 0 5.88.91 7.67 4.01z" fill="#c3ddff"/><path d="m163.589 433.49c0 32.548-25.386 57.934-57.934 57.934-5.181 0-10.206.331-14.993-.924-25.287-6.632-43.941-29.643-43.941-57.01 0-27.369 18.657-50.381 43.947-57.011 4.785-1.255 9.808-.923 14.988-.923 32.548 0 57.933 25.386 57.933 57.934z" fill="#556d76"/><path d="m448.433 433.49c0 32.548-25.386 57.934-57.934 57.934-5.161 0-10.167.337-14.938-.91-25.315-6.613-43.996-29.637-43.996-57.024 0-27.369 18.656-50.38 43.944-57.011 4.786-1.255 9.81-.923 14.99-.923 32.548 0 57.934 25.386 57.934 57.934z" fill="#556d76"/><path d="m193.744 203.717v25.168c0 2.761-2.239 5-5 5h-19.41c-2.761 0-5 2.239-5 5v19.41c0 2.762-2.238 5-5 5h-25.168c-2.762 0-5-2.238-5-5v-19.41c0-2.761-2.239-5-5-5h-19.41c-2.761 0-5-2.239-5-5v-25.168c0-2.761 2.239-5 5-5h19.41c2.761 0 5-2.239 5-5v-19.41c0-2.761 2.238-5 5-5h25.168c2.762 0 5 2.239 5 5v19.41c0 2.761 2.239 5 5 5h19.41c2.761 0 5 2.239 5 5z" fill="#ffe07d"/><path d="m467 379.609h-10.5c-2.761 0-5-2.238-5-5v-35.404l27.32-10.824z" fill="#ffe07d"/><path d="m497 298.468h-30l-91.7-159.32c-1.79-3.1-5.09-5.01-8.67-5.01h30c3.58 0 6.88 1.91 8.67 5.01z" fill="#a4ccff"/><path d="m449.43 433.488c0 32.55-26.38 58.94-58.93 58.94-5.18 0-10.21-.67-15-1.93 25.28-6.63 43.93-29.64 43.93-57.01s-18.65-50.37-43.93-57.01c4.79-1.25 9.82-1.92 15-1.92 32.55 0 58.93 26.38 58.93 58.93z" fill="#425a60"/><path d="m164.589 433.488c0 32.55-26.38 58.94-58.93 58.94-5.18 0-10.21-.67-15-1.93 25.28-6.63 43.93-29.64 43.93-57.01s-18.65-50.37-43.93-57.01c4.79-1.25 9.82-1.92 15-1.92 32.55 0 58.93 26.38 58.93 58.93z" fill="#425a60"/><path d="m105.655 440.99c-4.142 0-7.5-3.358-7.5-7.5 0-4.142 3.358-7.5 7.5-7.5 4.142 0 7.5 3.358 7.5 7.5 0 4.142-3.358 7.5-7.5 7.5z" fill="#f3f0f3"/><path d="m390.499 440.99c-4.142 0-7.5-3.358-7.5-7.5 0-4.142 3.358-7.5 7.5-7.5 4.142 0 7.5 3.358 7.5 7.5 0 4.142-3.358 7.5-7.5 7.5z" fill="#f3f0f3"/><path d="m467 339.208h30v40.401h-30z" fill="#ffd064"/><path d="m0 298.468h487v40.74h-487z" fill="#e5646e"/><path d="m286 134.138h15v282.07h-15z" fill="#e2dee2"/><path d="m467 298.468h30v40.74h-30z" fill="#db4655"/></g></svg>