<?xml version="1.0" encoding="iso-8859-1"?>
<!-- Generator: Adobe Illustrator 19.0.0, SVG Export Plug-In . SVG Version: 6.00 Build 0)  -->
<svg version="1.1" id="Layer_1" xmlns="http://www.w3.org/2000/svg" xmlns:xlink="http://www.w3.org/1999/xlink" x="0px" y="0px"
	 viewBox="0 0 512.001 512.001" style="enable-background:new 0 0 512.001 512.001;" xml:space="preserve">
<g>
	<path style="fill:#3E3D43;" d="M310.58,284.835c3.832,2.312,9.181,2.035,15.095-1.378c11.607-6.701,20.984-22.943,20.946-36.28
		c-0.019-6.647-2.373-11.316-6.167-13.499c0.013,0.007,0.025,0.014,0.037,0.021l-16.924-9.771c-3.821-2.22-9.073-1.976-14.914,1.396
		c-11.606,6.7-20.984,22.943-20.946,36.28c0.019,6.626,2.319,11.355,6.091,13.547l16.924,9.771
		C310.674,284.893,310.627,284.863,310.58,284.835z"/>
	<path style="fill:#3E3D43;" d="M310.722,284.92l-16.924-9.771c-3.772-2.192-6.072-6.921-6.091-13.547
		c-0.038-13.336,9.34-29.579,20.946-36.28c5.84-3.372,11.093-3.616,14.914-1.396l16.924,9.771c-3.821-2.22-9.113-1.907-14.953,1.465
		c-11.606,6.7-20.984,22.943-20.946,36.28C304.611,278.067,306.949,282.728,310.722,284.92z"/>
</g>
<path style="fill:#2E2E30;" d="M325.675,283.457c-11.606,6.701-21.045,1.322-21.083-12.014c-0.038-13.336,9.34-29.579,20.946-36.28
	c11.607-6.701,21.045-1.322,21.083,12.014S337.28,276.756,325.675,283.457z"/>
<path style="fill:#D8D8DA;" d="M338.633,249.919c-0.062-0.253-0.154-0.587-0.239-0.833c-0.108-0.31-0.269-0.719-0.405-1.018
	c-0.095-0.207-0.236-0.476-0.353-0.672c-0.141-0.234-0.346-0.535-0.505-0.758c-0.017-0.024-0.173-0.24-0.501-0.597
	c-0.143-0.157-0.354-0.36-0.475-0.468c-0.302-0.266-0.479-0.399-0.648-0.522c-0.27-0.196-0.515-0.342-0.647-0.419l0,0l-0.174-0.101
	c-0.676-0.392-1.393-0.677-2.131-0.847c-1.016-0.234-1.866-0.208-2.309-0.177c-0.388,0.027-0.903,0.103-1.284,0.18
	c-0.341,0.068-0.789,0.19-1.118,0.3c-0.544,0.181-1.247,0.489-1.769,0.725c-0.282,0.127-0.636,0.341-0.909,0.487
	c-1.801,1.045-3.099,2.214-3.889,2.967c-0.326,0.31-0.987,0.967-1.76,1.872c-0.786,0.923-1.339,1.701-1.605,2.075
	c-0.218,0.307-0.793,1.139-1.425,2.234c-0.558,0.967-0.973,1.813-1.223,2.353c-0.14,0.303-0.567,1.226-0.996,2.433
	c-0.256,0.721-0.533,1.704-0.735,2.443c-0.243,0.89-0.545,2.74-0.579,3.685c-0.013,0.345-0.038,0.805-0.036,1.149
	c0.002,0.363,0.024,0.845,0.049,1.207c0.04,0.563,0.14,1.313,0.284,1.859c0.067,0.254,0.148,0.595,0.233,0.843
	c0.109,0.323,0.271,0.747,0.411,1.057c0.095,0.212,0.238,0.489,0.356,0.689c0.141,0.238,0.348,0.544,0.507,0.77
	c0.073,0.104,0.183,0.235,0.264,0.334c0.069,0.084,0.166,0.191,0.238,0.272c0.143,0.157,0.358,0.368,0.478,0.472
	c0.243,0.216,0.419,0.358,0.648,0.526c0.068,0.049,0.159,0.114,0.229,0.16c0.06,0.039,0.129,0.083,0.2,0.126
	c0.078,0.05,0.157,0.099,0.237,0.146l0.176,0.101c0.632,0.368,1.154,0.558,1.491,0.669c0.284,0.094,0.57,0.164,0.682,0.188
	c0.106,0.023,0.247,0.053,0.353,0.071c0.149,0.025,0.348,0.059,0.498,0.071c0.275,0.022,0.643,0.049,0.918,0.045
	c0.324-0.005,0.757-0.04,1.078-0.077c0.295-0.036,0.683-0.115,0.972-0.182c0.259-0.06,0.604-0.15,0.854-0.241
	c0.538-0.195,1.245-0.488,1.766-0.725c0.281-0.128,0.636-0.339,0.907-0.486c0.323-0.177,0.735-0.445,1.041-0.651
	c0.295-0.197,0.672-0.481,0.958-0.69c0.008-0.006,0.829-0.609,1.89-1.628c0.883-0.846,1.542-1.619,1.76-1.872
	c0.903-1.057,1.599-2.066,1.605-2.075c0.222-0.33,0.531-0.761,0.737-1.099c0.207-0.341,0.49-0.79,0.689-1.134
	c0.199-0.345,0.446-0.814,0.637-1.164c0.005-0.009,0.564-1.057,1.111-2.394c0.317-0.773,0.426-1.057,0.87-2.449
	c0.003-0.01,0.355-1.128,0.604-2.464c0.143-0.77,0.254-1.561,0.31-2.444C339.058,252.67,338.948,251.214,338.633,249.919z"/>
<path style="fill:#ACABB1;" d="M326.703,246.182c6.744-3.893,12.228-0.768,12.25,6.98c0.022,7.749-5.427,17.188-12.171,21.081
	c-6.743,3.893-12.228,0.768-12.25-6.982C314.51,259.513,319.959,250.074,326.703,246.182z"/>
<path style="fill:#D8D8DA;" d="M338.633,249.919c-0.062-0.253-0.154-0.587-0.239-0.833c-0.108-0.31-0.269-0.719-0.405-1.018
	c-0.095-0.207-0.236-0.476-0.353-0.672c-0.141-0.234-0.346-0.535-0.505-0.758c-0.017-0.024-0.173-0.24-0.501-0.597
	c-0.143-0.157-0.354-0.36-0.475-0.468c-0.302-0.266-0.479-0.399-0.648-0.522c-0.27-0.196-0.515-0.342-0.647-0.419l0,0l-0.174-0.101
	c-0.676-0.392-1.393-0.677-2.131-0.847c-1.016-0.234-1.866-0.208-2.309-0.177c-0.388,0.027-0.903,0.103-1.284,0.18
	c-0.341,0.068-0.789,0.19-1.118,0.3c-0.544,0.181-1.247,0.489-1.769,0.725c-0.282,0.127-0.636,0.341-0.909,0.487
	c-1.801,1.045-3.099,2.214-3.889,2.967c-0.326,0.31-0.987,0.967-1.76,1.872c-0.786,0.923-1.339,1.701-1.605,2.075
	c-0.218,0.307-0.793,1.139-1.425,2.234c-0.558,0.967-0.973,1.813-1.223,2.353c-0.14,0.303-0.567,1.226-0.996,2.433
	c-0.256,0.721-0.533,1.704-0.735,2.443c-0.243,0.89-0.545,2.74-0.579,3.685c-0.013,0.345-0.038,0.805-0.036,1.149
	c0.002,0.363,0.024,0.845,0.049,1.207c0.04,0.563,0.14,1.313,0.284,1.859c0.067,0.254,0.148,0.595,0.233,0.843
	c0.109,0.323,0.271,0.747,0.411,1.057c0.095,0.212,0.238,0.489,0.356,0.689c0.141,0.238,0.348,0.544,0.507,0.77
	c0.073,0.104,0.183,0.236,0.264,0.334c0.069,0.084,0.166,0.191,0.238,0.272c0.143,0.157,0.358,0.368,0.476,0.472
	c0.243,0.216,0.419,0.358,0.648,0.526c0.068,0.049,0.159,0.114,0.229,0.16c0.13,0.085,0.304,0.193,0.437,0.274l0.176,0.101
	c0.632,0.368,1.154,0.558,1.491,0.669c0.284,0.094,0.571,0.164,0.682,0.188c0.106,0.023,0.247,0.053,0.353,0.071
	c0.149,0.025,0.348,0.059,0.498,0.071c0.275,0.022,0.643,0.049,0.918,0.045c0.324-0.005,0.757-0.04,1.078-0.077
	c0.295-0.036,0.683-0.115,0.972-0.182c0.259-0.06,0.604-0.15,0.854-0.241c0.538-0.195,1.244-0.488,1.766-0.725
	c0.281-0.127,0.636-0.339,0.907-0.486c0.323-0.177,0.735-0.445,1.041-0.651c0.295-0.197,0.672-0.481,0.958-0.69
	c0.008-0.006,0.829-0.609,1.89-1.628c0.883-0.846,1.542-1.619,1.76-1.872c0.903-1.057,1.599-2.066,1.605-2.075
	c0.222-0.33,0.531-0.761,0.737-1.099c0.207-0.341,0.49-0.789,0.689-1.134c0.199-0.345,0.446-0.814,0.637-1.164
	c0.005-0.009,0.564-1.057,1.111-2.394c0.317-0.773,0.426-1.057,0.87-2.449c0.003-0.01,0.355-1.129,0.604-2.464
	c0.143-0.77,0.254-1.561,0.31-2.444C339.058,252.67,338.948,251.214,338.633,249.919z M326.782,274.243
	c-6.743,3.893-12.228,0.768-12.25-6.982c-0.022-7.748,5.427-17.186,12.17-21.08c6.744-3.893,12.228-0.768,12.25,6.98
	C338.975,260.911,333.526,270.349,326.782,274.243z"/>
<g>
	<polygon style="fill:#C6C5CB;" points="459.918,195.951 446.644,203.665 446.466,266.438 342.835,206.607 343.057,128.48 
		326.973,119.194 313.698,126.909 313.307,264.674 329.392,273.96 342.666,266.246 342.739,240.442 446.37,300.273 446.253,341.431 
		462.337,350.717 475.612,343.002 476.002,205.237 	"/>
	<polygon style="fill:#C6C5CB;" points="211.207,327.579 211.03,390.353 107.399,330.522 107.62,252.395 91.536,243.109 
		78.262,250.823 77.871,388.588 93.955,397.874 107.23,390.16 107.303,364.357 210.934,424.188 210.817,465.345 226.901,474.631 
		240.176,466.917 240.566,329.151 224.483,319.865 	"/>
</g>
<g style="enable-background:new    ;">
	<g>
		<polygon style="fill:#D8D8DA;" points="329.509,232.803 342.783,225.089 342.666,266.246 329.392,273.96 		"/>
		<polygon style="fill:#D8D8DA;" points="329.782,136.195 343.057,128.48 342.835,206.607 329.561,214.322 		"/>
		<polygon style="fill:#D8D8DA;" points="313.698,126.909 326.973,119.194 343.057,128.48 329.782,136.195 		"/>
		<polygon style="fill:#D8D8DA;" points="329.561,214.322 342.835,206.607 459.697,274.078 446.422,281.792 		"/>
	</g>
	<polygon style="fill:#ACABB1;" points="462.728,212.951 476.002,205.237 475.612,343.002 462.337,350.717 	"/>
	<polygon style="fill:#D8D8DA;" points="446.644,203.665 459.918,195.951 476.002,205.237 462.728,212.951 	"/>
	<polygon style="fill:#C6C5CB;" points="462.728,212.951 462.337,350.717 446.253,341.431 446.37,300.273 329.509,232.803 
		329.392,273.96 313.307,264.674 313.698,126.909 329.782,136.195 329.561,214.322 446.422,281.792 446.644,203.665 	"/>
</g>
<g>
	<path style="fill:#3E3D43;" d="M470.164,372.271c3.832,2.312,9.181,2.035,15.095-1.378c11.607-6.701,20.984-22.943,20.946-36.28
		c-0.019-6.647-2.373-11.316-6.167-13.499c0.013,0.007,0.025,0.014,0.037,0.021l-16.924-9.771c-3.821-2.22-9.073-1.976-14.914,1.396
		c-11.606,6.7-20.984,22.943-20.946,36.28c0.019,6.626,2.319,11.355,6.091,13.547l16.924,9.771
		C470.258,372.329,470.211,372.299,470.164,372.271z"/>
	<path style="fill:#3E3D43;" d="M470.305,372.356l-16.924-9.771c-3.772-2.192-6.072-6.921-6.091-13.547
		c-0.038-13.336,9.34-29.579,20.946-36.28c5.84-3.372,11.093-3.616,14.914-1.396l16.924,9.771c-3.821-2.22-9.113-1.907-14.952,1.465
		c-11.606,6.7-20.984,22.943-20.946,36.28C464.195,365.503,466.533,370.164,470.305,372.356z"/>
</g>
<path style="fill:#2E2E30;" d="M485.259,370.893c-11.606,6.7-21.045,1.322-21.083-12.014s9.34-29.579,20.946-36.28
	c11.607-6.701,21.045-1.322,21.083,12.014C506.243,347.949,496.865,364.192,485.259,370.893z"/>
<path style="fill:#D8D8DA;" d="M498.216,337.355c-0.062-0.253-0.154-0.587-0.239-0.833c-0.108-0.31-0.269-0.719-0.405-1.018
	c-0.095-0.207-0.236-0.476-0.353-0.672c-0.141-0.234-0.346-0.535-0.505-0.758c-0.017-0.024-0.173-0.24-0.5-0.597
	c-0.143-0.157-0.354-0.361-0.475-0.468c-0.302-0.266-0.479-0.399-0.648-0.522c-0.27-0.196-0.515-0.342-0.647-0.419l0,0l-0.174-0.101
	c-0.676-0.392-1.393-0.677-2.131-0.847c-1.016-0.234-1.866-0.208-2.309-0.177c-0.388,0.027-0.903,0.103-1.284,0.18
	c-0.341,0.068-0.789,0.19-1.118,0.3c-0.544,0.181-1.247,0.489-1.769,0.725c-0.282,0.128-0.636,0.341-0.909,0.487
	c-1.801,1.045-3.099,2.214-3.889,2.967c-0.326,0.31-0.987,0.967-1.76,1.872c-0.786,0.923-1.339,1.701-1.605,2.075
	c-0.218,0.307-0.793,1.139-1.425,2.234c-0.558,0.967-0.973,1.813-1.223,2.353c-0.14,0.303-0.567,1.226-0.995,2.433
	c-0.256,0.721-0.533,1.704-0.735,2.443c-0.243,0.89-0.545,2.74-0.579,3.685c-0.013,0.345-0.038,0.805-0.036,1.149
	c0.002,0.363,0.024,0.845,0.049,1.207c0.04,0.563,0.14,1.313,0.284,1.859c0.067,0.254,0.148,0.595,0.233,0.843
	c0.109,0.323,0.271,0.747,0.411,1.057c0.095,0.212,0.238,0.489,0.356,0.689c0.141,0.238,0.348,0.544,0.507,0.77
	c0.073,0.105,0.183,0.235,0.264,0.334c0.069,0.084,0.166,0.191,0.238,0.272c0.143,0.157,0.358,0.368,0.476,0.472
	c0.243,0.216,0.419,0.358,0.648,0.526c0.068,0.049,0.159,0.114,0.229,0.16c0.06,0.039,0.129,0.083,0.2,0.126
	c0.078,0.05,0.157,0.099,0.237,0.146l0.176,0.101c0.632,0.368,1.154,0.558,1.491,0.669c0.284,0.094,0.57,0.164,0.682,0.188
	c0.106,0.023,0.247,0.053,0.353,0.071c0.149,0.025,0.348,0.059,0.498,0.071c0.275,0.022,0.643,0.049,0.918,0.045
	c0.324-0.005,0.757-0.04,1.078-0.077c0.295-0.036,0.683-0.115,0.972-0.181c0.259-0.06,0.604-0.15,0.854-0.241
	c0.538-0.195,1.244-0.488,1.766-0.725c0.281-0.127,0.636-0.339,0.907-0.486c0.323-0.177,0.735-0.445,1.041-0.651
	c0.295-0.197,0.672-0.481,0.958-0.69c0.008-0.006,0.829-0.609,1.89-1.628c0.883-0.846,1.542-1.619,1.76-1.872
	c0.903-1.057,1.599-2.066,1.605-2.075c0.221-0.33,0.531-0.761,0.737-1.099c0.207-0.341,0.49-0.789,0.689-1.134
	c0.199-0.345,0.446-0.814,0.637-1.164c0.005-0.009,0.564-1.057,1.111-2.394c0.317-0.773,0.426-1.057,0.87-2.449
	c0.003-0.01,0.355-1.128,0.604-2.464c0.143-0.77,0.254-1.561,0.31-2.444C498.642,340.106,498.532,338.65,498.216,337.355z"/>
<path style="fill:#ACABB1;" d="M486.287,333.618c6.744-3.893,12.228-0.768,12.25,6.98c0.022,7.749-5.427,17.188-12.171,21.081
	c-6.743,3.893-12.228,0.768-12.25-6.982C474.094,346.95,479.543,337.511,486.287,333.618z"/>
<path style="fill:#D8D8DA;" d="M498.216,337.355c-0.062-0.253-0.154-0.587-0.239-0.833c-0.108-0.31-0.269-0.719-0.405-1.018
	c-0.095-0.207-0.236-0.476-0.353-0.672c-0.141-0.234-0.346-0.535-0.505-0.758c-0.017-0.024-0.173-0.24-0.5-0.597
	c-0.143-0.157-0.354-0.361-0.475-0.468c-0.302-0.266-0.479-0.399-0.648-0.522c-0.27-0.196-0.515-0.342-0.647-0.419l0,0l-0.174-0.101
	c-0.676-0.392-1.393-0.677-2.131-0.847c-1.016-0.234-1.866-0.208-2.309-0.177c-0.388,0.027-0.903,0.103-1.284,0.18
	c-0.341,0.068-0.789,0.19-1.118,0.3c-0.544,0.181-1.247,0.489-1.769,0.725c-0.282,0.128-0.636,0.341-0.909,0.487
	c-1.801,1.045-3.099,2.214-3.889,2.967c-0.326,0.31-0.987,0.967-1.76,1.872c-0.786,0.923-1.339,1.701-1.605,2.075
	c-0.218,0.307-0.793,1.139-1.425,2.234c-0.558,0.967-0.973,1.813-1.223,2.353c-0.14,0.303-0.567,1.226-0.995,2.433
	c-0.256,0.721-0.533,1.704-0.735,2.443c-0.243,0.89-0.545,2.74-0.579,3.685c-0.013,0.345-0.038,0.805-0.036,1.149
	c0.002,0.363,0.024,0.845,0.049,1.207c0.04,0.563,0.14,1.313,0.284,1.859c0.067,0.254,0.148,0.595,0.233,0.843
	c0.109,0.323,0.271,0.747,0.411,1.057c0.095,0.212,0.238,0.489,0.356,0.689c0.141,0.238,0.348,0.544,0.507,0.77
	c0.073,0.105,0.183,0.236,0.264,0.334c0.069,0.084,0.166,0.191,0.238,0.272c0.143,0.157,0.358,0.368,0.476,0.472
	c0.243,0.216,0.419,0.358,0.648,0.526c0.068,0.049,0.159,0.114,0.229,0.16c0.13,0.085,0.304,0.193,0.437,0.274l0.176,0.101
	c0.632,0.368,1.154,0.558,1.491,0.669c0.284,0.094,0.57,0.164,0.682,0.188c0.106,0.023,0.247,0.053,0.353,0.071
	c0.149,0.025,0.348,0.059,0.498,0.071c0.275,0.022,0.643,0.049,0.918,0.045c0.324-0.005,0.757-0.04,1.078-0.077
	c0.295-0.036,0.683-0.115,0.972-0.181c0.259-0.06,0.604-0.15,0.854-0.241c0.538-0.195,1.244-0.488,1.766-0.725
	c0.281-0.127,0.636-0.339,0.907-0.486c0.323-0.177,0.735-0.445,1.041-0.651c0.295-0.197,0.672-0.481,0.958-0.69
	c0.008-0.006,0.829-0.609,1.89-1.628c0.883-0.846,1.542-1.619,1.76-1.872c0.903-1.057,1.599-2.066,1.605-2.075
	c0.221-0.33,0.531-0.761,0.737-1.099c0.207-0.341,0.49-0.789,0.689-1.134c0.199-0.345,0.446-0.814,0.637-1.164
	c0.005-0.009,0.564-1.057,1.111-2.394c0.317-0.773,0.426-1.057,0.87-2.449c0.003-0.01,0.355-1.128,0.604-2.464
	c0.143-0.77,0.254-1.561,0.31-2.444C498.642,340.106,498.532,338.65,498.216,337.355z M486.367,361.68
	c-6.743,3.893-12.228,0.768-12.25-6.982c-0.022-7.748,5.427-17.186,12.17-21.08c6.744-3.893,12.228-0.768,12.25,6.98
	C498.559,348.347,493.11,357.785,486.367,361.68z"/>
<g>
	<path style="fill:#3E3D43;" d="M75.144,408.748c3.832,2.312,9.182,2.035,15.095-1.378c11.607-6.701,20.984-22.943,20.946-36.28
		c-0.019-6.647-2.373-11.316-6.167-13.499c0.013,0.007,0.025,0.014,0.037,0.021l-16.924-9.771c-3.821-2.22-9.073-1.976-14.914,1.396
		c-11.606,6.7-20.984,22.943-20.946,36.28c0.019,6.626,2.319,11.355,6.091,13.547l16.924,9.771
		C75.238,408.807,75.191,408.777,75.144,408.748z"/>
	<path style="fill:#3E3D43;" d="M75.286,408.835l-16.924-9.771c-3.772-2.192-6.072-6.921-6.091-13.547
		c-0.038-13.336,9.34-29.579,20.946-36.28c5.84-3.372,11.093-3.616,14.914-1.396l16.924,9.771c-3.821-2.22-9.113-1.907-14.952,1.465
		c-11.606,6.7-20.984,22.943-20.946,36.28C69.174,401.981,71.514,406.643,75.286,408.835z"/>
</g>
<path style="fill:#2E2E30;" d="M90.238,407.371c-11.606,6.701-21.045,1.322-21.083-12.014c-0.038-13.336,9.34-29.579,20.946-36.28
	c11.607-6.701,21.045-1.322,21.083,12.014S101.845,400.67,90.238,407.371z"/>
<path style="fill:#D8D8DA;" d="M103.196,373.834c-0.062-0.253-0.154-0.587-0.239-0.833c-0.108-0.31-0.269-0.719-0.405-1.018
	c-0.095-0.207-0.236-0.476-0.353-0.672c-0.141-0.234-0.346-0.535-0.505-0.758c-0.017-0.024-0.173-0.24-0.501-0.597
	c-0.143-0.157-0.354-0.361-0.475-0.468c-0.302-0.266-0.479-0.399-0.648-0.522c-0.27-0.196-0.515-0.342-0.647-0.419l0,0l-0.174-0.101
	c-0.676-0.392-1.393-0.677-2.132-0.847c-1.016-0.234-1.866-0.208-2.309-0.177c-0.388,0.027-0.903,0.103-1.284,0.18
	c-0.341,0.068-0.789,0.19-1.118,0.3c-0.544,0.181-1.247,0.489-1.769,0.725c-0.282,0.127-0.636,0.341-0.909,0.487
	c-1.801,1.045-3.099,2.214-3.889,2.968c-0.326,0.31-0.987,0.966-1.76,1.872c-0.786,0.923-1.339,1.701-1.605,2.075
	c-0.218,0.307-0.793,1.139-1.425,2.234c-0.558,0.967-0.973,1.813-1.223,2.353c-0.14,0.303-0.567,1.226-0.995,2.433
	c-0.256,0.721-0.533,1.704-0.735,2.443c-0.243,0.89-0.545,2.74-0.579,3.685c-0.013,0.345-0.038,0.805-0.036,1.149
	c0.002,0.363,0.024,0.845,0.049,1.207c0.04,0.563,0.14,1.313,0.284,1.859c0.067,0.254,0.148,0.595,0.232,0.843
	c0.109,0.323,0.271,0.747,0.411,1.057c0.095,0.212,0.238,0.489,0.356,0.689c0.141,0.238,0.348,0.544,0.507,0.77
	c0.073,0.104,0.183,0.235,0.264,0.334c0.069,0.084,0.166,0.191,0.238,0.272c0.143,0.157,0.358,0.368,0.478,0.472
	c0.243,0.216,0.419,0.358,0.648,0.526c0.068,0.049,0.159,0.114,0.229,0.16c0.06,0.039,0.129,0.083,0.2,0.126
	c0.078,0.05,0.157,0.099,0.237,0.146l0.176,0.101c0.632,0.368,1.154,0.558,1.491,0.669c0.284,0.094,0.571,0.164,0.682,0.188
	c0.106,0.023,0.247,0.053,0.353,0.071c0.149,0.025,0.348,0.059,0.498,0.071c0.275,0.022,0.643,0.049,0.918,0.045
	c0.324-0.005,0.757-0.04,1.078-0.077c0.295-0.036,0.683-0.115,0.972-0.182c0.259-0.06,0.604-0.15,0.854-0.241
	c0.538-0.195,1.244-0.488,1.766-0.725c0.281-0.127,0.636-0.339,0.907-0.486c0.323-0.177,0.735-0.445,1.041-0.651
	c0.295-0.197,0.672-0.481,0.958-0.69c0.008-0.006,0.829-0.609,1.89-1.628c0.883-0.846,1.542-1.619,1.76-1.872
	c0.903-1.057,1.599-2.066,1.605-2.075c0.222-0.33,0.531-0.761,0.737-1.099c0.207-0.341,0.49-0.789,0.689-1.134
	c0.199-0.345,0.446-0.814,0.637-1.164c0.005-0.009,0.564-1.057,1.111-2.394c0.317-0.773,0.426-1.057,0.87-2.449
	c0.003-0.01,0.355-1.128,0.604-2.464c0.143-0.77,0.254-1.561,0.31-2.444C103.621,376.584,103.512,375.129,103.196,373.834z"/>
<path style="fill:#ACABB1;" d="M91.267,370.096c6.744-3.893,12.228-0.768,12.25,6.98c0.022,7.749-5.427,17.188-12.171,21.081
	c-6.743,3.893-12.228,0.768-12.25-6.982C79.074,383.427,84.523,373.989,91.267,370.096z"/>
<path style="fill:#D8D8DA;" d="M103.196,373.834c-0.062-0.253-0.154-0.587-0.239-0.833c-0.108-0.31-0.269-0.719-0.405-1.018
	c-0.095-0.207-0.236-0.476-0.353-0.672c-0.141-0.234-0.346-0.536-0.505-0.758c-0.017-0.024-0.173-0.24-0.501-0.597
	c-0.143-0.157-0.354-0.361-0.475-0.468c-0.302-0.266-0.479-0.399-0.648-0.522c-0.27-0.196-0.515-0.342-0.647-0.419l0,0l-0.174-0.101
	c-0.676-0.392-1.393-0.677-2.131-0.847c-1.016-0.234-1.866-0.208-2.309-0.177c-0.388,0.027-0.903,0.103-1.284,0.18
	c-0.341,0.068-0.789,0.19-1.118,0.3c-0.544,0.181-1.247,0.489-1.769,0.725c-0.282,0.127-0.636,0.341-0.909,0.487
	c-1.801,1.045-3.099,2.214-3.889,2.968c-0.326,0.31-0.987,0.966-1.76,1.872c-0.786,0.923-1.339,1.701-1.605,2.075
	c-0.218,0.307-0.793,1.139-1.425,2.234c-0.558,0.967-0.973,1.813-1.223,2.353c-0.14,0.303-0.567,1.226-0.995,2.433
	c-0.256,0.721-0.533,1.704-0.735,2.443c-0.243,0.89-0.545,2.74-0.579,3.685c-0.013,0.345-0.038,0.805-0.036,1.149
	c0.002,0.363,0.024,0.845,0.049,1.207c0.04,0.563,0.14,1.313,0.284,1.859c0.067,0.254,0.148,0.595,0.232,0.843
	c0.109,0.323,0.271,0.747,0.411,1.057c0.095,0.212,0.238,0.489,0.356,0.689c0.141,0.238,0.348,0.544,0.507,0.77
	c0.073,0.104,0.183,0.236,0.264,0.334c0.069,0.084,0.166,0.191,0.238,0.272c0.143,0.157,0.358,0.368,0.476,0.472
	c0.243,0.216,0.419,0.358,0.648,0.526c0.068,0.049,0.159,0.114,0.229,0.16c0.13,0.085,0.304,0.193,0.437,0.274l0.176,0.101
	c0.632,0.368,1.154,0.558,1.491,0.669c0.284,0.094,0.571,0.164,0.682,0.188c0.106,0.023,0.247,0.053,0.353,0.071
	c0.149,0.025,0.348,0.059,0.498,0.071c0.275,0.022,0.643,0.049,0.918,0.045c0.324-0.005,0.757-0.04,1.078-0.077
	c0.295-0.036,0.683-0.115,0.972-0.182c0.259-0.06,0.604-0.15,0.854-0.241c0.538-0.195,1.244-0.488,1.766-0.725
	c0.281-0.128,0.636-0.339,0.907-0.486c0.323-0.177,0.735-0.445,1.041-0.651c0.295-0.197,0.672-0.481,0.958-0.69
	c0.008-0.006,0.829-0.609,1.89-1.628c0.883-0.846,1.542-1.619,1.76-1.872c0.903-1.057,1.599-2.066,1.605-2.075
	c0.222-0.33,0.531-0.761,0.737-1.099c0.207-0.341,0.49-0.789,0.689-1.134c0.199-0.345,0.446-0.814,0.637-1.164
	c0.005-0.009,0.564-1.057,1.111-2.394c0.317-0.773,0.426-1.057,0.87-2.449c0.003-0.01,0.355-1.128,0.604-2.464
	c0.143-0.77,0.254-1.561,0.31-2.444C103.621,376.584,103.512,375.129,103.196,373.834z M91.346,398.157
	c-6.743,3.893-12.228,0.768-12.25-6.982c-0.022-7.748,5.427-17.186,12.17-21.08c6.744-3.893,12.228-0.768,12.25,6.98
	C103.539,384.825,98.09,394.264,91.346,398.157z"/>
<path style="fill:#E0E0E2;" d="M477.084,85.2L362.628,19.118c-9.736-5.622-18.557-6.144-24.926-2.443l-13.274,7.714
	c0.02-0.011,0.042-0.021,0.063-0.032c-6.324,3.639-10.248,11.422-10.28,22.503l-0.18,63.384l184.516,106.53l13.274-7.714
	l0.18-63.384C512.063,123.443,496.433,96.372,477.084,85.2z M370.402,75.509l-29.915-17.272l0.038-13.148
	c0.008-2.901,0.449-5.433,1.243-7.57c2.313,0.378,4.805,1.293,7.403,2.793l21.297,12.295L370.402,75.509z M455.85,101.903
	l8.066,4.657c11.42,6.593,20.76,22.071,21.696,35.466l-29.828-17.221L455.85,101.903z"/>
<g style="enable-background:new    ;">
	<g>
		<polygon style="fill:#C6C5CB;" points="327.248,52.805 340.524,45.09 340.486,58.237 327.212,65.952 		"/>
		<path style="fill:#C6C5CB;" d="M333.622,38.79l13.274-7.714c-3.923,2.279-6.354,7.126-6.374,14.015l-13.274,7.714
			C327.268,45.916,329.701,41.068,333.622,38.79z"/>
	</g>
	<g>
		<polygon style="fill:#E0E0E2;" points="327.212,65.952 340.486,58.237 383.633,83.149 370.359,90.863 		"/>
		<path style="fill:#E0E0E2;" d="M324.426,24.391l13.274-7.714c6.369-3.701,15.19-3.179,24.926,2.443l-13.274,7.714
			C339.616,21.211,330.796,20.689,324.426,24.391z"/>
	</g>
	<polygon style="fill:#C6C5CB;" points="442.619,94.264 455.893,86.55 455.784,124.806 442.51,132.52 	"/>
	<polygon style="fill:#E0E0E2;" points="442.51,132.52 455.784,124.806 498.931,149.716 485.657,157.43 	"/>
	<polygon style="fill:#C6C5CB;" points="498.726,153.391 512,145.676 511.82,209.06 498.546,216.774 	"/>
	<polygon style="fill:#E0E0E2;" points="349.353,26.833 362.628,19.118 477.084,85.2 463.809,92.914 	"/>
	<path style="fill:#D8D8DA;" d="M463.809,92.914c19.348,11.171,34.979,38.243,34.915,60.477l-0.18,63.384l-184.515-106.53
		l0.18-63.384c0.063-22.233,15.795-31.199,35.144-20.028L463.809,92.914z M370.359,90.863l0.109-38.255L349.17,40.313
		c-12.068-6.967-21.882-1.374-21.921,12.492l-0.038,13.148L370.359,90.863 M485.657,157.43l0.038-13.148
		c0.04-13.867-9.711-30.756-21.779-37.723l-21.297-12.295l-0.109,38.255L485.657,157.43"/>
	<path style="fill:#E0E0E2;" d="M463.809,92.914l13.274-7.714c19.348,11.171,34.979,38.243,34.915,60.477l-13.274,7.714
		C498.788,131.157,483.159,104.085,463.809,92.914z"/>
</g>
<path style="fill:#E0E0E2;" d="M278.619,87.568c-0.031-11.078-3.956-18.86-10.281-22.501c0.02,0.011,0.042,0.021,0.062,0.032
	l-13.274-7.714c-6.369-3.701-15.189-3.181-24.925,2.441l-114.463,66.085c-19.343,11.168-34.973,38.246-34.91,60.472l0.103,36.521
	l13.274,7.714l184.516-106.53L278.619,87.568z M194.721,109.273l48.93-28.25c2.6-1.5,5.093-2.416,7.408-2.794
	c0.796,2.139,1.237,4.673,1.244,7.576l0.038,13.141l-57.556,33.23L194.721,109.273z M128.912,147.268l35.706-20.615l0.065,22.902
	l-57.466,33.179C108.155,169.34,117.494,153.861,128.912,147.268z"/>
<g style="enable-background:new    ;">
	<g>
		<polygon style="fill:#D8D8DA;" points="265.616,106.66 252.342,98.945 252.304,85.805 265.579,93.519 		"/>
		<path style="fill:#D8D8DA;" d="M245.928,71.786l13.274,7.714c3.924,2.28,6.356,7.129,6.376,14.018l-13.274-7.714
			C252.284,78.915,249.852,74.066,245.928,71.786z"/>
	</g>
	<g>
		<path style="fill:#E0E0E2;" d="M255.125,57.386L268.4,65.1c-6.369-3.701-15.189-3.181-24.925,2.441L230.2,59.826
			C239.936,54.206,248.756,53.685,255.125,57.386z"/>
		<polygon style="fill:#E0E0E2;" points="194.829,147.529 181.554,139.814 252.342,98.945 265.616,106.66 		"/>
	</g>
	<polygon style="fill:#D8D8DA;" points="177.958,157.269 164.682,149.555 164.575,111.3 177.849,119.015 	"/>
	<polygon style="fill:#E0E0E2;" points="107.171,198.139 93.896,190.424 164.682,149.555 177.958,157.269 	"/>
	<polygon style="fill:#D8D8DA;" points="94.206,230.62 80.932,222.906 80.827,186.384 94.102,194.099 	"/>
	<polygon style="fill:#E0E0E2;" points="129.011,133.627 115.737,125.912 230.2,59.826 243.475,67.541 	"/>
	<path style="fill:#C6C5CB;" d="M243.475,67.541c19.348-11.171,35.08-2.198,35.144,20.028l0.103,36.521L94.206,230.62l-0.103-36.521
		c-0.063-22.226,15.567-49.306,34.91-60.472L243.475,67.541z M265.616,106.66l-0.038-13.141
		c-0.04-13.867-9.853-19.466-21.927-12.496l-48.93,28.25l0.109,38.255L265.616,106.66 M177.958,157.269l-0.109-38.255
		l-48.937,28.254c-12.068,6.967-21.817,23.863-21.779,37.729l0.038,13.141L177.958,157.269"/>
	<path style="fill:#E0E0E2;" d="M94.102,194.099l-13.274-7.714c-0.063-22.226,15.567-49.306,34.91-60.472l13.274,7.714
		C109.669,144.793,94.039,171.873,94.102,194.099z"/>
</g>
<g style="enable-background:new    ;">
	<g>
		<polygon style="fill:#D8D8DA;" points="13.323,299.288 0.049,291.573 0,274.301 13.274,282.016 		"/>
		<polygon style="fill:#D8D8DA;" points="13.274,282.016 0,274.301 314.076,92.969 327.352,100.683 		"/>
		<polygon style="fill:#D8D8DA;" points="327.352,100.683 327.4,117.955 13.323,299.288 13.274,282.016 		"/>
	</g>
	<polygon style="fill:#ACABB1;" points="94.072,356.717 107.347,349.003 107.23,390.16 93.955,397.874 	"/>
	<g>
		<polygon style="fill:#D8D8DA;" points="94.346,260.109 107.62,252.395 107.399,330.522 94.124,338.236 		"/>
		<polygon style="fill:#D8D8DA;" points="78.262,250.822 91.536,243.109 107.62,252.395 94.346,260.109 		"/>
		<polygon style="fill:#D8D8DA;" points="94.124,338.236 107.399,330.522 224.261,397.992 210.986,405.706 		"/>
	</g>
	<polygon style="fill:#ACABB1;" points="227.291,336.865 240.566,329.151 240.176,466.917 226.901,474.631 	"/>
	<polygon style="fill:#D8D8DA;" points="211.207,327.579 224.483,319.865 240.566,329.151 227.291,336.865 	"/>
	<polygon style="fill:#C6C5CB;" points="227.291,336.865 226.901,474.631 210.818,465.345 210.934,424.188 94.072,356.717 
		93.955,397.874 77.871,388.588 78.262,250.822 94.346,260.109 94.124,338.236 210.986,405.706 211.207,327.579 	"/>
</g>
<g>
	<path style="fill:#3E3D43;" d="M234.728,496.185c3.832,2.312,9.182,2.035,15.095-1.378c11.607-6.701,20.984-22.943,20.946-36.28
		c-0.019-6.647-2.373-11.316-6.167-13.499c0.013,0.007,0.025,0.014,0.037,0.021l-16.924-9.771c-3.821-2.22-9.073-1.976-14.914,1.396
		c-11.606,6.7-20.984,22.943-20.946,36.28c0.019,6.626,2.319,11.355,6.091,13.547l16.924,9.771
		C234.822,496.243,234.775,496.213,234.728,496.185z"/>
	<path style="fill:#3E3D43;" d="M234.869,496.271l-16.924-9.771c-3.772-2.192-6.072-6.921-6.091-13.547
		c-0.038-13.336,9.34-29.579,20.946-36.28c5.84-3.372,11.093-3.616,14.914-1.396l16.924,9.771c-3.821-2.22-9.113-1.907-14.952,1.465
		c-11.606,6.7-20.984,22.943-20.946,36.28C228.758,489.417,231.097,494.079,234.869,496.271z"/>
</g>
<path style="fill:#2E2E30;" d="M249.823,494.807c-11.606,6.7-21.045,1.322-21.083-12.014s9.34-29.579,20.946-36.28
	c11.607-6.701,21.045-1.322,21.083,12.014S261.428,488.106,249.823,494.807z"/>
<path style="fill:#D8D8DA;" d="M262.78,461.27c-0.062-0.253-0.154-0.587-0.239-0.833c-0.108-0.31-0.269-0.719-0.405-1.018
	c-0.095-0.207-0.236-0.476-0.353-0.672c-0.141-0.234-0.346-0.535-0.505-0.758c-0.017-0.024-0.173-0.24-0.501-0.597
	c-0.143-0.157-0.354-0.36-0.475-0.468c-0.302-0.266-0.479-0.399-0.648-0.522c-0.27-0.196-0.515-0.342-0.647-0.419l0,0l-0.174-0.101
	c-0.676-0.392-1.393-0.677-2.132-0.847c-1.016-0.234-1.866-0.208-2.309-0.177c-0.388,0.027-0.903,0.103-1.284,0.18
	c-0.341,0.068-0.789,0.19-1.118,0.3c-0.544,0.181-1.247,0.489-1.769,0.725c-0.282,0.127-0.636,0.341-0.909,0.487
	c-1.801,1.045-3.099,2.214-3.889,2.967c-0.326,0.31-0.987,0.967-1.76,1.872c-0.786,0.923-1.339,1.701-1.605,2.075
	c-0.218,0.307-0.793,1.139-1.425,2.234c-0.558,0.967-0.973,1.813-1.223,2.353c-0.14,0.303-0.567,1.226-0.995,2.433
	c-0.256,0.721-0.533,1.704-0.735,2.443c-0.243,0.89-0.545,2.74-0.579,3.685c-0.013,0.345-0.038,0.805-0.036,1.149
	c0.002,0.363,0.024,0.845,0.049,1.207c0.04,0.563,0.14,1.313,0.284,1.859c0.067,0.254,0.148,0.595,0.232,0.843
	c0.109,0.323,0.271,0.747,0.411,1.057c0.095,0.212,0.238,0.489,0.356,0.689c0.141,0.238,0.348,0.544,0.507,0.77
	c0.073,0.104,0.183,0.235,0.264,0.334c0.069,0.084,0.166,0.191,0.238,0.272c0.143,0.157,0.358,0.368,0.476,0.472
	c0.243,0.216,0.419,0.358,0.648,0.526c0.068,0.049,0.159,0.114,0.229,0.16c0.06,0.039,0.129,0.083,0.2,0.126
	c0.078,0.05,0.157,0.099,0.237,0.146l0.176,0.101c0.632,0.368,1.154,0.558,1.491,0.669c0.284,0.094,0.571,0.164,0.682,0.188
	c0.106,0.023,0.247,0.053,0.353,0.071c0.149,0.025,0.348,0.059,0.498,0.071c0.275,0.022,0.643,0.049,0.918,0.045
	c0.324-0.005,0.757-0.04,1.078-0.077c0.295-0.036,0.683-0.115,0.972-0.182c0.259-0.06,0.604-0.15,0.854-0.241
	c0.538-0.195,1.244-0.488,1.766-0.725c0.281-0.128,0.636-0.339,0.907-0.486c0.323-0.177,0.735-0.445,1.041-0.651
	c0.295-0.197,0.672-0.481,0.958-0.69c0.008-0.006,0.829-0.609,1.89-1.628c0.883-0.846,1.542-1.619,1.76-1.872
	c0.903-1.057,1.599-2.066,1.605-2.075c0.222-0.33,0.531-0.761,0.737-1.099c0.207-0.341,0.49-0.789,0.689-1.134
	c0.199-0.345,0.446-0.814,0.637-1.164c0.005-0.009,0.564-1.057,1.111-2.394c0.317-0.773,0.426-1.057,0.87-2.449
	c0.003-0.01,0.355-1.128,0.604-2.464c0.143-0.77,0.254-1.561,0.31-2.444C263.206,464.02,263.096,462.565,262.78,461.27z"/>
<path style="fill:#ACABB1;" d="M250.851,457.532c6.744-3.893,12.228-0.768,12.25,6.98c0.022,7.749-5.427,17.188-12.171,21.081
	c-6.743,3.893-12.228,0.768-12.25-6.982C238.658,470.863,244.107,461.425,250.851,457.532z"/>
<path style="fill:#D8D8DA;" d="M262.78,461.27c-0.062-0.253-0.154-0.587-0.239-0.833c-0.108-0.31-0.269-0.719-0.405-1.018
	c-0.095-0.207-0.236-0.476-0.353-0.672c-0.141-0.234-0.346-0.535-0.505-0.758c-0.017-0.024-0.173-0.24-0.501-0.597
	c-0.143-0.157-0.354-0.36-0.475-0.468c-0.302-0.266-0.479-0.399-0.648-0.522c-0.27-0.196-0.515-0.342-0.647-0.419l0,0l-0.174-0.101
	c-0.676-0.392-1.393-0.677-2.132-0.847c-1.016-0.234-1.866-0.208-2.309-0.177c-0.388,0.027-0.903,0.103-1.284,0.18
	c-0.341,0.068-0.789,0.19-1.118,0.3c-0.544,0.181-1.247,0.489-1.769,0.725c-0.282,0.127-0.636,0.341-0.909,0.487
	c-1.801,1.045-3.099,2.214-3.889,2.967c-0.326,0.31-0.987,0.967-1.76,1.872c-0.786,0.923-1.339,1.701-1.605,2.075
	c-0.218,0.307-0.793,1.139-1.425,2.234c-0.558,0.967-0.973,1.813-1.223,2.353c-0.14,0.303-0.567,1.226-0.995,2.433
	c-0.256,0.721-0.533,1.704-0.735,2.443c-0.243,0.89-0.545,2.74-0.579,3.685c-0.013,0.345-0.038,0.805-0.036,1.149
	c0.002,0.363,0.024,0.845,0.049,1.207c0.04,0.563,0.14,1.313,0.284,1.859c0.067,0.254,0.148,0.595,0.232,0.843
	c0.109,0.323,0.271,0.747,0.411,1.057c0.095,0.212,0.238,0.489,0.356,0.689c0.141,0.238,0.348,0.544,0.507,0.77
	c0.073,0.104,0.183,0.236,0.264,0.334c0.069,0.084,0.166,0.191,0.238,0.272c0.143,0.157,0.358,0.368,0.476,0.472
	c0.243,0.216,0.419,0.358,0.648,0.526c0.068,0.049,0.159,0.114,0.229,0.16c0.13,0.085,0.304,0.193,0.437,0.274l0.176,0.101
	c0.632,0.368,1.154,0.558,1.491,0.669c0.284,0.094,0.571,0.164,0.682,0.188c0.106,0.023,0.247,0.053,0.353,0.071
	c0.149,0.025,0.348,0.059,0.498,0.071c0.275,0.022,0.643,0.049,0.918,0.045c0.324-0.005,0.757-0.04,1.078-0.077
	c0.295-0.036,0.683-0.115,0.972-0.182c0.259-0.06,0.604-0.15,0.854-0.241c0.538-0.195,1.244-0.488,1.766-0.725
	c0.281-0.127,0.636-0.339,0.907-0.486c0.323-0.177,0.735-0.445,1.041-0.651c0.295-0.197,0.672-0.481,0.958-0.69
	c0.008-0.006,0.829-0.609,1.89-1.628c0.883-0.846,1.542-1.619,1.76-1.872c0.903-1.057,1.599-2.066,1.605-2.075
	c0.222-0.33,0.531-0.761,0.737-1.099c0.207-0.341,0.49-0.789,0.689-1.134c0.199-0.345,0.446-0.814,0.637-1.164
	c0.005-0.009,0.564-1.057,1.111-2.394c0.317-0.773,0.426-1.057,0.87-2.449c0.003-0.01,0.355-1.128,0.604-2.464
	c0.143-0.77,0.254-1.561,0.31-2.444C263.206,464.02,263.096,462.565,262.78,461.27z M250.93,485.593
	c-6.743,3.893-12.228,0.768-12.25-6.982c-0.022-7.748,5.427-17.186,12.17-21.08c6.744-3.893,12.228-0.768,12.25,6.98
	C263.123,472.261,257.674,481.7,250.93,485.593z"/>
<path style="fill:#2487FF;" d="M471.946,166.761c0.112-1.276-0.67-2.576-2.359-3.551L330.965,83.177
	c-3.157-1.822-8.25-1.822-11.381-0.003l-76.593,44.511c-1.563,0.908-2.342,2.097-2.341,3.286c0-0.004-0.001-0.007-0.001-0.012
	l-0.016,5.427l-0.348-0.202c-3.157-1.822-8.251-1.822-11.387,0l-96.234,55.925c-1.559,0.906-2.336,2.093-2.334,3.282
	c0-0.004-0.001-0.008-0.001-0.011l-0.014,4.813l-0.057-0.033c-3.157-1.822-8.251-1.822-11.387,0L42.278,244.67
	c-1.56,0.907-2.337,2.094-2.335,3.282c0-0.004-0.001-0.008-0.001-0.013l-0.109,38.383c-0.003,1.201,0.79,2.404,2.379,3.322
	l138.621,80.033c3.157,1.822,8.251,1.822,11.381,0.003l76.593-44.511c1.558-0.906,2.339-2.089,2.342-3.275l0.014-4.812l0.059,0.033
	c3.157,1.822,8.25,1.822,11.381,0.003l96.234-55.925c1.558-0.906,2.338-2.089,2.342-3.275l0.016-5.427l0.348,0.201
	c3.157,1.822,8.25,1.822,11.387,0l76.593-44.511c1.555-0.904,2.332-2.086,2.336-3.271l0.109-38.383
	C471.966,166.609,471.953,166.685,471.946,166.761z"/>
<g style="enable-background:new    ;">
	<path style="fill:#016EF1;" d="M240.541,169.342l0.109-38.383c-0.003,1.201,0.79,2.403,2.378,3.321l-0.109,38.383
		C241.331,171.746,240.538,170.544,240.541,169.342z"/>
	<g>
		<path style="fill:#004FAE;" d="M471.966,166.532l-0.109,38.383c-0.003,1.185-0.782,2.367-2.336,3.271l0.109-38.383
			C471.184,168.899,471.963,167.716,471.966,166.532z"/>
		<polygon style="fill:#004FAE;" points="469.629,169.802 469.521,208.185 392.928,252.697 393.036,214.314 		"/>
	</g>
	<polygon style="fill:#016EF1;" points="381.65,214.314 381.54,252.697 242.919,172.664 243.028,134.281 	"/>
	<path style="fill:#005ECF;" d="M393.036,214.314l-0.109,38.383c-3.136,1.822-8.231,1.822-11.387,0l0.109-38.383
		C384.806,216.136,389.901,216.136,393.036,214.314z"/>
	<path style="fill:#2487FF;" d="M469.587,163.21c3.157,1.822,3.173,4.773,0.043,6.592l-76.593,44.511
		c-3.136,1.822-8.231,1.822-11.387,0l-138.621-80.032c-3.157-1.822-3.173-4.773-0.038-6.595l76.593-44.511
		c3.13-1.819,8.224-1.819,11.381,0.003L469.587,163.21z"/>
</g>
<g style="enable-background:new    ;">
	<path style="fill:#016EF1;" d="M130.22,233.764l0.109-38.383c-0.003,1.201,0.79,2.404,2.379,3.322l-0.109,38.383
		C131.01,236.169,130.216,234.966,130.22,233.764z"/>
	<g>
		<path style="fill:#004FAE;" d="M381.286,219.54l-0.109,38.383c-0.003,1.186-0.784,2.37-2.342,3.275l0.109-38.383
			C380.503,221.909,381.282,220.725,381.286,219.54z"/>
		<polygon style="fill:#004FAE;" points="378.945,222.815 378.836,261.198 282.601,317.123 282.711,278.74 		"/>
	</g>
	<polygon style="fill:#016EF1;" points="271.33,278.737 271.221,317.12 132.599,237.087 132.708,198.704 	"/>
	<path style="fill:#005ECF;" d="M282.711,278.74l-0.109,38.383c-3.13,1.819-8.224,1.819-11.381-0.003l0.109-38.383
		C274.486,280.559,279.58,280.559,282.711,278.74z"/>
	<path style="fill:#2487FF;" d="M378.907,216.219c3.157,1.822,3.173,4.773,0.037,6.595L282.71,278.74
		c-3.131,1.819-8.224,1.819-11.381-0.003l-138.621-80.033c-3.157-1.822-3.173-4.773-0.043-6.592l96.234-55.925
		c3.136-1.822,8.231-1.822,11.387,0L378.907,216.219z"/>
	<path style="fill:#016EF1;" d="M39.833,286.325l0.109-38.383c-0.003,1.202,0.79,2.404,2.379,3.322l-0.109,38.383
		C40.622,288.729,39.829,287.526,39.833,286.325z"/>
	<g>
		<path style="fill:#004FAE;" d="M271.258,283.514l-0.109,38.383c-0.003,1.186-0.784,2.37-2.342,3.275l0.109-38.383
			C270.475,285.884,271.254,284.7,271.258,283.514z"/>
		<polygon style="fill:#004FAE;" points="268.917,286.79 268.807,325.173 192.214,369.684 192.324,331.3 		"/>
	</g>
	<polygon style="fill:#016EF1;" points="180.943,331.297 180.834,369.68 42.212,289.648 42.32,251.264 	"/>
	<path style="fill:#005ECF;" d="M192.324,331.3l-0.109,38.383c-3.131,1.819-8.224,1.819-11.381-0.003l0.109-38.383
		C184.1,333.119,189.193,333.119,192.324,331.3z"/>
	<path style="fill:#2487FF;" d="M268.879,280.193c3.157,1.822,3.173,4.773,0.037,6.595l-76.593,44.511
		c-3.131,1.819-8.224,1.819-11.381-0.003L42.32,251.264c-3.157-1.822-3.173-4.773-0.043-6.592l76.593-44.511
		c3.136-1.822,8.231-1.822,11.387,0L268.879,280.193z"/>
</g>
<polygon style="fill:#C6C5CB;" points="498.499,199.497 485.224,191.782 171.148,373.115 171.197,390.388 184.471,398.102 
	498.548,216.77 "/>
<g style="enable-background:new    ;">
	<polygon style="fill:#D8D8DA;" points="184.471,398.102 171.197,390.388 171.148,373.115 184.422,380.83 	"/>
	<polygon style="fill:#E0E0E2;" points="184.422,380.83 171.148,373.115 485.224,191.783 498.499,199.497 	"/>
	<polygon style="fill:#C6C5CB;" points="498.499,199.497 498.548,216.77 184.471,398.102 184.422,380.83 	"/>
</g>
<path style="fill:#E0E0E2;" d="M451.989,185.557c-0.031-11.078-3.956-18.86-10.281-22.501c0.02,0.011,0.042,0.021,0.062,0.032
	l-13.274-7.714c-6.369-3.701-15.189-3.181-24.925,2.441L289.108,223.9c-19.342,11.168-34.973,38.246-34.909,60.472l0.103,36.521
	l13.274,7.714l184.516-106.53L451.989,185.557z M368.091,207.263l48.93-28.25c2.6-1.5,5.093-2.416,7.408-2.794
	c0.796,2.139,1.237,4.673,1.244,7.576l0.038,13.141l-57.556,33.23L368.091,207.263z M302.283,245.256l35.705-20.615l0.065,22.902
	l-57.466,33.179C281.526,267.329,290.865,251.849,302.283,245.256z"/>
<g style="enable-background:new    ;">
	<g>
		<polygon style="fill:#D8D8DA;" points="438.987,204.648 425.712,196.934 425.675,183.793 438.949,191.508 		"/>
		<path style="fill:#D8D8DA;" d="M419.299,169.775l13.274,7.714c3.924,2.28,6.356,7.129,6.376,14.018l-13.274-7.714
			C425.655,176.904,423.222,172.055,419.299,169.775z"/>
	</g>
	<g>
		<path style="fill:#E0E0E2;" d="M428.496,155.374l13.274,7.714c-6.369-3.701-15.189-3.181-24.925,2.441l-13.274-7.714
			C413.306,152.194,422.126,151.673,428.496,155.374z"/>
		<polygon style="fill:#E0E0E2;" points="368.2,245.517 354.925,237.803 425.712,196.934 438.987,204.648 		"/>
	</g>
	<polygon style="fill:#D8D8DA;" points="351.328,255.258 338.054,247.543 337.945,209.289 351.219,217.003 	"/>
	<polygon style="fill:#E0E0E2;" points="280.542,296.127 267.267,288.413 338.054,247.543 351.328,255.258 	"/>
	<polygon style="fill:#D8D8DA;" points="267.576,328.609 254.302,320.894 254.199,284.373 267.473,292.087 	"/>
	<polygon style="fill:#E0E0E2;" points="302.383,231.615 289.108,223.9 403.571,157.815 416.845,165.529 	"/>
	<path style="fill:#C6C5CB;" d="M416.845,165.529c19.348-11.171,35.08-2.198,35.144,20.028l0.103,36.521l-184.516,106.53
		l-0.103-36.521c-0.063-22.226,15.567-49.306,34.91-60.472L416.845,165.529z M438.987,204.648l-0.038-13.141
		c-0.04-13.867-9.853-19.466-21.927-12.496l-48.93,28.25l0.109,38.255L438.987,204.648 M351.328,255.258l-0.109-38.255
		l-48.937,28.254c-12.068,6.967-21.817,23.863-21.779,37.729l0.038,13.141L351.328,255.258"/>
	<path style="fill:#E0E0E2;" d="M267.473,292.087l-13.274-7.714c-0.063-22.226,15.567-49.306,34.91-60.472l13.274,7.714
		C283.04,242.782,267.41,269.861,267.473,292.087z"/>
</g>
<path style="fill:#E0E0E2;" d="M163.103,266.53L48.647,200.449c-9.736-5.622-18.557-6.144-24.926-2.442l-13.275,7.713
	c0.02-0.011,0.042-0.021,0.062-0.032c-6.324,3.639-10.248,11.422-10.28,22.503l-0.18,63.383l184.516,106.53l13.274-7.714
	l0.18-63.384C198.082,304.773,182.453,277.701,163.103,266.53z M56.421,256.839l-29.915-17.272l0.038-13.148
	c0.008-2.901,0.448-5.433,1.243-7.57c2.313,0.378,4.805,1.293,7.403,2.793l21.297,12.295L56.421,256.839z M141.87,283.233
	l8.066,4.657c11.42,6.593,20.76,22.071,21.696,35.465l-29.827-17.221L141.87,283.233z"/>
<g style="enable-background:new    ;">
	<g>
		<polygon style="fill:#C6C5CB;" points="13.268,234.134 26.544,226.42 26.506,239.568 13.232,247.282 		"/>
		<path style="fill:#C6C5CB;" d="M19.642,220.119l13.274-7.714c-3.923,2.279-6.354,7.126-6.374,14.015l-13.274,7.714
			C13.288,227.245,15.72,222.399,19.642,220.119z"/>
	</g>
	<g>
		<polygon style="fill:#E0E0E2;" points="13.232,247.282 26.506,239.568 69.653,264.478 56.379,272.193 		"/>
		<path style="fill:#E0E0E2;" d="M10.446,205.72l13.274-7.714c6.369-3.701,15.19-3.179,24.926,2.443l-13.274,7.714
			C25.636,202.542,16.816,202.019,10.446,205.72z"/>
	</g>
	<polygon style="fill:#C6C5CB;" points="128.638,275.595 141.913,267.88 141.804,306.135 128.53,313.849 	"/>
	<polygon style="fill:#E0E0E2;" points="128.53,313.849 141.804,306.135 184.951,331.045 171.677,338.76 	"/>
	<polygon style="fill:#C6C5CB;" points="184.745,334.72 198.02,327.006 197.84,390.389 184.566,398.104 	"/>
	<polygon style="fill:#E0E0E2;" points="35.373,208.163 48.647,200.449 163.103,266.53 149.829,274.245 	"/>
	<path style="fill:#D8D8DA;" d="M149.829,274.245c19.348,11.171,34.979,38.243,34.915,60.477l-0.18,63.384L0.049,291.573
		l0.18-63.384c0.063-22.233,15.796-31.199,35.144-20.028L149.829,274.245z M56.379,272.193l0.109-38.255L35.19,221.642
		c-12.068-6.967-21.882-1.374-21.921,12.492l-0.038,13.148L56.379,272.193 M171.677,338.76l0.038-13.148
		c0.04-13.867-9.711-30.755-21.779-37.723l-21.297-12.295l-0.109,38.255L171.677,338.76"/>
	<path style="fill:#E0E0E2;" d="M149.829,274.245l13.274-7.714c19.348,11.171,34.979,38.243,34.915,60.477l-13.274,7.714
		C184.808,312.487,169.178,285.416,149.829,274.245z"/>
</g>
<g>
</g>
<g>
</g>
<g>
</g>
<g>
</g>
<g>
</g>
<g>
</g>
<g>
</g>
<g>
</g>
<g>
</g>
<g>
</g>
<g>
</g>
<g>
</g>
<g>
</g>
<g>
</g>
<g>
</g>
</svg>
