<svg id="Capa_1" enable-background="new 0 0 512 512" height="512" viewBox="0 0 512 512" width="512" xmlns="http://www.w3.org/2000/svg"><g><g><path d="m51.839 224.596-25.919-25.299-11.523-161.123c0-7.396 9.237-18.312 16.634-18.312h7.416c7.396 0 13.392 5.996 13.392 13.392z" fill="#1c8ae5"/></g><g><path d="m38.446 19.862h-25.054c-7.396 0-13.392 5.996-13.392 13.392v166.043l14.397 21.887 11.522-21.887v-166.043c0-7.25 5.765-13.14 12.96-13.37-.145-.005-.287-.022-.433-.022z" fill="#1e6ee2"/></g><g><path d="m294.199 305.742h39.806v55.63h-39.806z" fill="#ffdd40"/></g><g><path d="m177.995 305.742h39.806v55.63h-39.806z" fill="#ffdd40"/></g><g><path d="m112.305 402.55 4.203 31.362h16.143v-33.093c0-6.589 5.341-11.93 11.93-11.93h222.839c6.589 0 21.856 5.341 21.856 11.93l8.246 33.093h17.431v-31.362c0-27.207-22.056-49.263-49.263-49.263h-208.88c-27.208 0-44.505 22.056-44.505 49.263z" fill="#1c8ae5"/></g><g><path d="m165.596 353.287h-19.285c-27.207 0-49.263 22.056-49.263 49.263v31.362h19.285v-31.362c0-27.207 22.056-49.263 49.263-49.263z" fill="#1e6ee2"/></g><g><path d="m386.704 388.89h-19.284c6.589 0 11.93 5.341 11.93 11.93v33.093h19.285v-33.093c-.001-6.589-5.342-11.93-11.931-11.93z" fill="#1e6ee2"/></g><g><path d="m432.538 457.121c0 19.339-15.678 35.017-35.017 35.017s-21.407-15.678-21.407-35.017 2.068-35.017 21.407-35.017 35.017 15.678 35.017 35.017z" fill="#bac5e2"/></g><g><path d="m381.789 457.121c0-15.994 10.726-29.473 25.374-33.662-3.064-.876-6.297-1.355-9.642-1.355-19.34 0-35.017 15.678-35.017 35.017s15.678 35.017 35.017 35.017c3.346 0 6.578-.479 9.642-1.356-14.647-4.188-25.374-17.667-25.374-33.661z" fill="#a7b4d1"/></g><g><path d="m149.496 457.121c0 19.339-15.678 35.017-35.017 35.017s-19.481-15.678-19.481-35.017.141-35.017 19.481-35.017 35.017 15.678 35.017 35.017z" fill="#bac5e2"/></g><g><path d="m98.747 457.121c0-15.994 10.726-29.473 25.375-33.662-3.064-.876-6.297-1.355-9.643-1.355-19.339 0-35.017 15.678-35.017 35.017s15.678 35.017 35.017 35.017c3.346 0 6.578-.479 9.643-1.356-14.649-4.188-25.375-17.667-25.375-33.661z" fill="#a7b4d1"/></g><g><circle cx="397.521" cy="457.121" fill="#e9efff" r="8.246"/></g><g><circle cx="114.479" cy="457.121" fill="#e9efff" r="8.246"/></g><g><path d="m439.558 315.429h-348.269c-11.379 0-25.219-9.225-25.219-20.604l8.53-14.779 369.382 6.73 16.179 4.821v3.227c0 11.38-9.224 20.605-20.603 20.605z" fill="#1c8ae5"/></g><g><path d="m460.161 291.599v-37.101h-382.403-25.919v40.327c0 11.379 9.225 20.604 20.604 20.604h25.919c-11.379 0-20.604-9.225-20.604-20.604 0-1.782 1.445-3.227 3.227-3.227h379.176z" fill="#1e6ee2"/></g><g><path d="m512 199.297v-27.997c0-11.379-9.225-20.604-20.604-20.604h-325.025c-8.374 0-16.39-3.398-22.213-9.417l-50.612-52.319c-1.746-1.804-3.702-3.279-5.793-4.424-9.2-5.037-14.859 4.174-22.671 11.987-9.383 9.383-1.833 17.683 7.417 27.197l83.9 75.576 195.979 44.568z" fill="#e9efff"/></g><g><path d="m82.207 88.673c1.683-1.682 3.557-3.048 5.543-4.133-9.2-5.036-20.992-3.68-28.805 4.133-9.383 9.383-9.489 24.562-.239 34.075l74.431 76.548 14.382 13.063 8.879-13.063-74.431-76.548c-9.248-9.513-9.142-24.692.24-34.075z" fill="#d3dcfb"/></g><g><path d="m440.784 193.115v-84.225c0-14.224-11.531-25.755-25.755-25.755h-152.652c-14.224 0-25.755 11.531-25.755 25.755v84.225c0 3.414-2.767 6.181-6.181 6.181h-204.522l-6.48 53.361c0 11.379 8.06 18.403 19.44 18.403h452.517c11.379 0 20.604-9.225 20.604-20.604v-51.161h-65.035c-3.414.002-6.181-2.766-6.181-6.18zm-126.064 6.182h-36.314c-3.414 0-6.181-2.767-6.181-6.181v-68.196c0-3.414 2.767-6.181 6.181-6.181h36.314c3.414 0 6.181 2.767 6.181 6.181v68.195c0 3.414-2.767 6.182-6.181 6.182zm84.28 0h-36.314c-3.414 0-6.181-2.767-6.181-6.181v-68.196c0-3.414 2.767-6.181 6.181-6.181h36.314c3.414 0 6.181 2.767 6.181 6.181v68.195c0 3.414-2.768 6.182-6.181 6.182z" fill="#42c3fc"/></g><g><path d="m25.919 250.457v-51.161h-25.919v51.161c0 11.379 9.225 20.604 20.604 20.604h25.919c-11.379 0-20.604-9.225-20.604-20.604z" fill="#1aa9e8"/></g><g><path d="m129.782 243.865h-40.795c-4.267 0-7.726-3.459-7.726-7.726s3.459-7.726 7.726-7.726h40.795c4.267 0 7.726 3.459 7.726 7.726.001 4.266-3.459 7.726-7.726 7.726z" fill="#e5979d"/></g><g><path d="m174.533 243.865h-11.126c-4.267 0-7.726-3.459-7.726-7.726s3.459-7.726 7.726-7.726h11.126c4.267 0 7.726 3.459 7.726 7.726.001 4.266-3.459 7.726-7.726 7.726z" fill="#e5979d"/></g></g></svg>