<svg id="Flat" height="512" viewBox="0 0 512 512" width="512" xmlns="http://www.w3.org/2000/svg"><g><path d="m334 488h-84a18.021 18.021 0 0 1 -18-18v-30h16v30a2 2 0 0 0 2 2h84a2 2 0 0 0 2-2v-142h16v142a18.021 18.021 0 0 1 -18 18z" fill="#e64b30"/><g><path d="m252 72h-20v-8a40 40 0 0 0 -40-40h-32a40 40 0 0 0 -40 40v8h-20a52.059 52.059 0 0 0 -52 52v222.377a61.925 61.925 0 0 0 42.394 58.823l5.606 1.865v48.935h32v-38.269l6.257 2.085a131.84 131.84 0 0 0 25.743 5.804v62.38h32v-62.38a131.811 131.811 0 0 0 25.742-5.8l6.258-2.089v38.269h32v-48.936l5.607-1.869a61.923 61.923 0 0 0 42.393-58.818v-222.377a52.059 52.059 0 0 0 -52-52z" fill="#ffedeb"/><path d="m251.487 374.838-43.864 14.621a100 100 0 0 1 -63.246 0l-43.864-14.621a30 30 0 0 1 -20.513-28.461v-222.377a20 20 0 0 1 20-20h152a20 20 0 0 1 20 20v222.377a30 30 0 0 1 -20.513 28.461z" fill="#e64b30"/><path d="m80 160h192v160h-192z" fill="#fef8f7"/><g fill="#e64b30"><path d="m160 40h32v16h-32z"/><path d="m192 224h-24v-24h-32v24h-24v32h24v24h32v-24h24z"/><path d="m200 280h48v16h-48z"/></g></g><g><path d="m448.007 152.827c-21.323-22.436-55.895-22.436-77.219 0l-26.794 28.191-26.8-28.191c-21.323-22.436-55.9-22.436-77.219 0-21.323 22.435-21.323 58.81 0 81.245l104.019 109.438 104.013-109.438c21.324-22.435 21.324-58.81 0-81.245z" fill="#fdbf44"/><path d="m360 280a8 8 0 0 1 -6.782-3.76l-32.44-51.9-9.621 19.242a8 8 0 0 1 -7.157 4.418h-24v-16h19.056l13.789-27.578a8 8 0 0 1 13.939-.662l31.644 50.63 10.144-25.361a8 8 0 0 1 7.428-5.029h40v16h-34.583l-13.989 34.971a8 8 0 0 1 -6.717 5c-.238.018-.476.029-.711.029z" fill="#fffcf8"/></g></g></svg>