<svg height="511pt" viewBox="-55 1 511 511.99925" width="511pt" xmlns="http://www.w3.org/2000/svg"><path d="m283.714844 84.339844c0-14.136719-10.300782-26.164063-24.269532-28.320313-27.035156-4.167969-72.8125-10-117.339843-10-41.753907 0-89.164063 5.988281-117.164063 10.164063-14.042968 2.097656-24.441406 14.144531-24.441406 28.34375v333.148437c0 4.316407 2.894531 8.097657 7.0625 9.222657l24.945312 6.730468v26.035156c0 5.273438 4.277344 9.550782 9.550782 9.550782h200.09375c5.273437 0 9.550781-4.277344 9.550781-9.550782v-26.035156l24.945313-6.730468c4.167968-1.125 7.0625-4.90625 7.0625-9.222657v-333.335937zm0 0" fill="#c1dbd6"/><path d="m255.367188 82.453125c-23.464844-3.617187-69.378907-9.6875-113.261719-9.6875-40.949219 0-88.527344 6.1875-113.234375 9.875-.933594.136719-1.625.941406-1.625 1.886719v312.089844c0 4.65625 3.121094 8.730468 7.617187 9.945312l24.390625 6.582031v19.027344c0 5.6875 4.609375 10.300781 10.300782 10.300781h17.25v59.976563c0 5.273437 4.273437 9.550781 9.550781 9.550781h5.472656c5.277344 0 9.550781-4.277344 9.550781-9.550781v-59.976563h61.449219v59.976563c0 5.273437 4.277344 9.550781 9.550781 9.550781h5.476563c5.273437 0 9.550781-4.277344 9.550781-9.550781v-59.976563h17.25c5.6875 0 10.300781-4.613281 10.300781-10.300781v-19.027344l24.390625-6.582031c4.496094-1.214844 7.617188-5.289062 7.617188-9.945312v-312.277344c.003906-.949219-.667969-1.742188-1.597656-1.886719zm0 0" fill="#d9efec"/><path d="m256.972656 178.195312v218.421876c0 4.652343-3.125 8.730468-7.617187 9.945312l-24.398438 6.578125v19.03125c0 5.691406-4.613281 10.300781-10.300781 10.300781h-17.246094v59.976563c0 5.273437-4.277344 9.550781-9.550781 9.550781h-5.472656c-5.277344 0-9.550781-4.277344-9.550781-9.550781v-59.976563h-61.457032v59.976563c0 5.273437-4.273437 9.550781-9.550781 9.550781h-5.472656c-5.273438 0-9.550781-4.277344-9.550781-9.550781v-59.976563h-17.242188c-5.691406 0-10.304688-4.609375-10.304688-10.300781v-19.03125l-24.394531-6.578125c-4.496093-1.214844-7.621093-5.292969-7.621093-9.945312v-218.421876zm0 0" fill="#f55"/><path d="m256.972656 178.195312v218.421876c0 4.652343-3.125 8.730468-7.617187 9.945312l-24.398438 6.578125v19.03125c0 5.691406-4.613281 10.300781-10.300781 10.300781h-17.246094v59.976563c0 5.273437-4.277344 9.550781-9.550781 9.550781h-5.472656c-5.277344 0-9.550781-4.277344-9.550781-9.550781v-59.976563h-13.46875c74.761718-63.820312 60.746093-216.511718 54.253906-264.277344zm0 0" fill="#f72b2b"/><path d="m27.242188 222.808594h229.730468v133.035156h-229.730468zm0 0" fill="#a0ecff"/><path d="m73.613281 259.460938h-2.203125v-2.203126c0-4.269531-3.460937-7.726562-7.726562-7.726562s-7.726563 3.460938-7.726563 7.726562v2.203126h-2.203125c-4.265625 0-7.722656 3.457031-7.722656 7.726562 0 4.265625 3.457031 7.726562 7.722656 7.726562h2.203125v2.199219c0 4.269531 3.460938 7.726563 7.726563 7.726563s7.726562-3.457032 7.726562-7.726563v-2.199219h2.203125c4.265625 0 7.726563-3.460937 7.726563-7.726562 0-4.269531-3.460938-7.726562-7.726563-7.726562zm0 0" fill="#f55"/><g fill="#38aaff"><path d="m114.351562 264.984375h-16.117187c-4.265625 0-7.726563-3.460937-7.726563-7.726563 0-4.269531 3.460938-7.726562 7.726563-7.726562h16.117187c4.269532 0 7.726563 3.460938 7.726563 7.726562 0 4.265626-3.457031 7.726563-7.726563 7.726563zm0 0"/><path d="m137.953125 283.976562h-39.714844c-4.269531 0-7.726562-3.457031-7.726562-7.722656 0-4.269531 3.457031-7.726562 7.726562-7.726562h39.714844c4.265625 0 7.722656 3.457031 7.722656 7.726562 0 4.265625-3.457031 7.722656-7.722656 7.722656zm0 0"/><path d="m141.40625 309.496094h-87.652344c-4.265625 0-7.726562-3.460938-7.726562-7.726563 0-4.269531 3.460937-7.726562 7.726562-7.726562h87.652344c4.265625 0 7.722656 3.457031 7.722656 7.726562 0 4.265625-3.457031 7.726563-7.722656 7.726563zm0 0"/><path d="m141.40625 329.117188h-87.652344c-4.265625 0-7.726562-3.460938-7.726562-7.726563 0-4.269531 3.460937-7.726563 7.726562-7.726563h87.652344c4.265625 0 7.722656 3.457032 7.722656 7.726563 0 4.265625-3.457031 7.726563-7.722656 7.726563zm0 0"/></g><path d="m256.972656 222.808594v133.035156h-48.78125c11.652344-45.292969 12.074219-95.363281 9.773438-133.035156zm0 0" fill="#60daff"/><path d="m400.648438 210.976562c0 64.582032-52.355469 116.933594-116.933594 116.933594-64.582032 0-116.933594-52.351562-116.933594-116.933594 0-50.683593 72.019531-159.3125 103.019531-203.714843 6.753907-9.679688 21.070313-9.679688 27.828125 0 30.996094 44.402343 103.019532 153.03125 103.019532 203.714843zm0 0" fill="#f55"/><path d="m400.640625 210.972656c0 64.589844-52.351563 116.945313-116.925781 116.945313-10.671875 0-21.023438-1.4375-30.847656-4.121094 49.621093-13.535156 86.082031-58.917969 86.082031-112.824219 0-42.832031-51.433594-127.046875-86.082031-178.914062 6.335937-9.503906 12.121093-17.925782 16.925781-24.792969 6.769531-9.6875 21.074219-9.6875 27.839843 0 30.996094 44.398437 103.007813 153.023437 103.007813 203.707031zm0 0" fill="#f72b2b"/><path d="m358.476562 208.234375c0 41.289063-33.472656 74.761719-74.761718 74.761719-41.289063 0-74.761719-33.472656-74.761719-74.761719s33.472656-74.761719 74.761719-74.761719c41.289062 0 74.761718 33.472656 74.761718 74.761719zm0 0" fill="#a0ecff"/><path d="m291.132812 250.101562h-14.839843c-12.007813 0-21.777344-9.769531-21.777344-21.773437v-40.1875c0-12.003906 9.769531-21.773437 21.777344-21.773437h14.839843c12.007813 0 21.777344 9.769531 21.777344 21.773437v40.1875c0 12.003906-9.769531 21.773437-21.777344 21.773437zm-14.839843-68.28125c-3.488281 0-6.324219 2.835938-6.324219 6.320313v40.1875c0 3.484375 2.835938 6.320313 6.324219 6.320313h14.839843c3.488282 0 6.324219-2.835938 6.324219-6.320313v-40.1875c0-3.484375-2.835937-6.320313-6.324219-6.320313zm0 0" fill="#f72b2b"/></svg>