<svg id="Layer_1" enable-background="new 0 0 512 512" height="512" viewBox="0 0 512 512" width="512" xmlns="http://www.w3.org/2000/svg"><g><path d="m270.81 7.5v104.24c0 12.56-8.47 23.18-20 26.46v288.5c0 47.03-38.27 85.3-85.3 85.3-5.05 0-10.01-.44-14.82-1.3-40-7.03-70.48-42.02-70.48-84v-288.5c-11.53-3.28-20-13.9-20-26.46v-104.24c0-4.14 3.36-7.5 7.5-7.5h195.6c4.14 0 7.5 3.36 7.5 7.5z" fill="#e4f4ff"/><path d="m270.81 7.5v104.24c0 12.56-8.47 23.18-20 26.46v288.5c0 47.03-38.27 85.3-85.3 85.3-5.05 0-10.01-.44-14.82-1.3 40.23-7.12 70.54-42.87 70.54-85.09v-287.41c11.53-3.28 20-13.9 20-26.46v-104.24c0-4.14-3.36-7.5-7.5-7.5h29.58c4.14 0 7.5 3.36 7.5 7.5z" fill="#c0eaf7"/><path d="m270.81 7.5v58.77h-210.6v-58.77c0-4.14 3.36-7.5 7.5-7.5h195.6c4.14 0 7.5 3.36 7.5 7.5z" fill="#4b6675"/><path d="m270.81 7.5v58.77h-29.58v-58.77c0-4.14-3.36-7.5-7.5-7.5h29.58c4.14 0 7.5 3.36 7.5 7.5z" fill="#294a59"/><path d="m250.81 215.2v211.5c0 47.03-38.27 85.3-85.3 85.3-5.05 0-10.01-.44-14.82-1.3-40-7.03-70.48-42.02-70.48-84v-211.5z" fill="#ff2261"/><path d="m250.81 215.2v211.5c0 47.03-38.27 85.3-85.3 85.3-5.05 0-10.01-.44-14.82-1.3 40.23-7.12 70.54-42.87 70.54-85.09v-210.41z" fill="#b7305d"/><path d="m221.23 192.7v188.45c0 4.14-3.36 7.5-7.5 7.5h-96.45c-4.14 0-7.5-3.36-7.5-7.5v-188.45c0-4.15 3.36-7.5 7.5-7.5h96.45c4.14 0 7.5 3.35 7.5 7.5z" fill="#ffe527"/><path d="m221.23 192.7v188.45c0 4.14-3.36 7.5-7.5 7.5h-23c4.14 0 7.5-3.36 7.5-7.5v-188.45c0-4.15-3.36-7.5-7.5-7.5h23c4.14 0 7.5 3.35 7.5 7.5z" fill="#ffbd29"/><path d="m183.565 279.421h-10.557v-10.557c0-4.142-3.358-7.5-7.5-7.5s-7.5 3.358-7.5 7.5v10.557h-10.558c-4.142 0-7.5 3.358-7.5 7.5s3.358 7.5 7.5 7.5h10.557v10.557c0 4.142 3.358 7.5 7.5 7.5s7.5-3.358 7.5-7.5v-10.557h10.557c4.142 0 7.5-3.358 7.5-7.5s-3.357-7.5-7.499-7.5z" fill="#ff2261"/><path d="m285.81 38.81v54.93c0 4.14-3.36 7.5-7.5 7.5h-225.6c-4.14 0-7.5-3.36-7.5-7.5v-54.93c0-4.15 3.36-7.5 7.5-7.5h225.6c4.14 0 7.5 3.35 7.5 7.5z" fill="#9fc3d7"/><g><path d="m390.4 178.91c0 24.47-19.91 44.39-44.39 44.39-3.5 0-6.91-.41-10.17-1.18-19.6-4.61-34.22-22.24-34.22-43.21 0-22.12 34.72-76.79 38.68-82.95 1.25-1.95 3.4-3.12 5.71-3.12h.06c2.29.02 4.41 1.19 5.65 3.12 3.96 6.16 38.68 60.83 38.68 82.95z" fill="#ff2261"/><path d="m351.72 95.96c3.96 6.16 38.68 60.83 38.68 82.95 0 24.47-19.91 44.39-44.39 44.39-3.5 0-6.91-.41-10.17-1.18 19.59-4.61 34.21-22.24 34.21-43.21 0-14.83-13.74-57.61-23.98-86.07 2.29.02 4.41 1.19 5.65 3.12z" fill="#b7305d"/><path d="m401.86 364.89c0 30.79-25.05 55.85-55.85 55.85-5.2 0-10.23-.71-15-2.05-23.54-6.57-40.85-28.2-40.85-53.8 0-27.84 43.68-96.62 48.66-104.37 1.57-2.44 4.28-3.92 7.19-3.92s5.61 1.48 7.19 3.92c4.98 7.75 48.66 76.53 48.66 104.37z" fill="#ff2261"/><path d="m353.2 260.52c4.98 7.75 48.66 76.53 48.66 104.37 0 30.79-25.05 55.85-55.85 55.85-5.2 0-10.23-.71-15-2.05 23.54-6.57 40.85-28.2 40.85-53.8 0-27.84-22.35-99.77-25.85-108.29 2.91 0 5.61 1.48 7.19 3.92z" fill="#b7305d"/><path d="m466.79 253.16c0 20.37-16.58 36.94-36.95 36.94-3.47 0-6.82-.48-10-1.37-15.53-4.38-26.94-18.66-26.94-35.57 0-17.75 26.02-59.13 31.23-67.24 1.25-1.95 3.4-3.12 5.71-3.12 2.32 0 4.47 1.17 5.72 3.12 5.21 8.11 31.23 49.49 31.23 67.24z" fill="#ff2261"/><path d="m466.79 253.16c0 20.37-16.58 36.94-36.95 36.94-3.47 0-6.82-.48-10-1.37 15.53-4.38 26.95-18.66 26.95-35.57 0-10.18-8.61-42.83-16.95-70.36 2.32 0 4.47 1.17 5.72 3.12 5.21 8.11 31.23 49.49 31.23 67.24z" fill="#b7305d"/></g><g fill="#99f5d2"><circle cx="123.688" cy="428.696" r="7.495"/><path d="m174.813 421.238c0-4.14-3.356-7.495-7.495-7.495s-7.495 3.356-7.495 7.495c0 4.14 3.356 7.495 7.495 7.495s7.495-3.355 7.495-7.495z"/><path d="m157.453 462.069c0-4.14-3.356-7.496-7.495-7.496s-7.495 3.356-7.495 7.496c0 4.139 3.356 7.495 7.495 7.495s7.495-3.355 7.495-7.495z"/><path d="m204.813 449.238c0-4.14-3.356-7.496-7.495-7.496s-7.495 3.356-7.495 7.496c0 4.139 3.356 7.495 7.495 7.495s7.495-3.355 7.495-7.495z"/></g><g fill="#7ca3bf"><path d="m105.302 31.307h60.094v69.929h-60.094z"/><path d="m285.81 38.81v54.93c0 4.14-3.36 7.5-7.5 7.5h-52.6v-69.93h52.6c4.14 0 7.5 3.35 7.5 7.5z"/></g></g></svg>