<svg id="Capa_1" enable-background="new 0 0 512 512" height="512" viewBox="0 0 512 512" width="512" xmlns="http://www.w3.org/2000/svg"><g><path d="m151 497h-121v-391c0-8.284 6.716-15 15-15h106z" fill="#d9e5ff"/><path d="m482 497h-121v-406h106c8.284 0 15 6.716 15 15z" fill="#bfd6ff"/><path d="m151 346h210v151h-210z" fill="#7adfe3"/><path d="m256 346h105v151h-105z" fill="#68c9e0"/><path d="m181 497h-60v-136l31.421-30h28.579z" fill="#4d5e80"/><path d="m391 497h-60v-166h31.026l28.974 30z" fill="#3d4566"/><g fill="#68c9e0"><path d="m60 301h91v60h-91z"/><path d="m60 211h91v60h-91z"/><path d="m60 121h91v60h-91z"/></g><path d="m361 121h91v60h-91z" fill="#55b3dc"/><path d="m361 211h91v60h-91z" fill="#55b3dc"/><path d="m361 301h91v60h-91z" fill="#55b3dc"/><path d="m391 15v346h-270v-346c0-8.401 6.599-15 15-15h240c8.401 0 15 6.599 15 15z" fill="#ecf2ff"/><path d="m391 361h-135v-361h120c8.401 0 15 6.599 15 15z" fill="#d9e5ff"/><g><path d="m226 211h-30c-8.291 0-15-6.709-15-15s6.709-15 15-15h30c8.291 0 15 6.709 15 15s-6.709 15-15 15z" fill="#7adfe3"/></g><g><path d="m316 211h-30c-8.291 0-15-6.709-15-15s6.709-15 15-15h30c8.291 0 15 6.709 15 15s-6.709 15-15 15z" fill="#68c9e0"/></g><g><path d="m226 271h-30c-8.291 0-15-6.709-15-15s6.709-15 15-15h30c8.291 0 15 6.709 15 15s-6.709 15-15 15z" fill="#7adfe3"/></g><g><path d="m316 271h-30c-8.291 0-15-6.709-15-15s6.709-15 15-15h30c8.291 0 15 6.709 15 15s-6.709 15-15 15z" fill="#68c9e0"/></g><g><path d="m226 331h-30c-8.291 0-15-6.709-15-15s6.709-15 15-15h30c8.291 0 15 6.709 15 15s-6.709 15-15 15z" fill="#7adfe3"/></g><g><path d="m316 331h-30c-8.291 0-15-6.709-15-15s6.709-15 15-15h30c8.291 0 15 6.709 15 15s-6.709 15-15 15z" fill="#68c9e0"/></g><path d="m301 106c0 8.399-6.599 15-15 15h-15v15c0 8.399-6.599 15-15 15s-15-6.601-15-15v-15h-15c-8.401 0-15-6.601-15-15 0-8.401 6.599-15 15-15h15v-15c0-8.401 6.599-15 15-15s15 6.599 15 15v15h15c8.401 0 15 6.599 15 15z" fill="#f378a7"/><path d="m256 151v-90c8.401 0 15 6.599 15 15v15h15c8.401 0 15 6.599 15 15 0 8.399-6.599 15-15 15h-15v15c0 8.399-6.599 15-15 15z" fill="#ec5c92"/><g><path d="m512 497c0 8.399-6.599 15-15 15h-482c-8.401 0-15-6.601-15-15 0-8.401 6.599-15 15-15h482c8.401 0 15 6.599 15 15z" fill="#8aebab"/></g><path d="m512 497c0 8.399-6.599 15-15 15h-241v-30h241c8.401 0 15 6.599 15 15z" fill="#71d9a3"/></g></svg>