<svg id="Capa_1" enable-background="new 0 0 512 512" height="512" viewBox="0 0 512 512" width="512" xmlns="http://www.w3.org/2000/svg" xmlns:xlink="http://www.w3.org/1999/xlink"><linearGradient id="SVGID_1_" gradientUnits="userSpaceOnUse" x1="74.98" x2="437.019" y1="437.019" y2="74.981"><stop offset="0" stop-color="#008547"/><stop offset="1" stop-color="#85ffe0"/></linearGradient><radialGradient id="SVGID_2_" cx="256" cy="256" gradientUnits="userSpaceOnUse" r="256"><stop offset="0" stop-color="#0c7579"/><stop offset="1" stop-color="#85ffe0" stop-opacity="0"/></radialGradient><linearGradient id="lg1"><stop offset=".014" stop-color="#43dcc7"/><stop offset=".3203" stop-color="#85ffe0"/><stop offset=".4503" stop-color="#97ffe5"/><stop offset=".7104" stop-color="#c5fff0"/><stop offset="1" stop-color="#fff"/></linearGradient><linearGradient id="SVGID_3_" gradientUnits="userSpaceOnUse" x1="-52.784" x2="498.611" xlink:href="#lg1" y1="719.376" y2="167.982"/><linearGradient id="SVGID_4_" gradientUnits="userSpaceOnUse" x1="-16.823" x2="548.085" xlink:href="#lg1" y1="529.331" y2="-35.577"/><linearGradient id="lg2"><stop offset="0" stop-color="#00b8ae"/><stop offset="1" stop-color="#85ffe0"/></linearGradient><linearGradient id="SVGID_5_" gradientUnits="userSpaceOnUse" x1="20.909" x2="396.533" xlink:href="#lg2" y1="361.892" y2="-13.732"/><linearGradient id="SVGID_6_" gradientUnits="userSpaceOnUse" x1="67.842" x2="470.643" xlink:href="#lg2" y1="292.325" y2="-110.477"/><linearGradient id="SVGID_7_" gradientUnits="userSpaceOnUse" x1="239.704" x2="612.796" xlink:href="#lg2" y1="402.3" y2="29.208"/><linearGradient id="SVGID_8_" gradientUnits="userSpaceOnUse" x1="303.666" x2="707.523" xlink:href="#lg2" y1="315.382" y2="-88.475"/><linearGradient id="lg3"><stop offset="0" stop-color="#85ffe0"/><stop offset="1" stop-color="#fff"/></linearGradient><linearGradient id="SVGID_9_" gradientUnits="userSpaceOnUse" x1="-89.486" x2="347.133" xlink:href="#lg3" y1="549.665" y2="113.047"/><linearGradient id="SVGID_10_" gradientUnits="userSpaceOnUse" x1="-169.15" x2="551.36" xlink:href="#lg3" y1="622.141" y2="-98.369"/><linearGradient id="SVGID_11_" gradientUnits="userSpaceOnUse" x1="212.472" x2="514.806" y1="468.159" y2="165.826"><stop offset=".014" stop-color="#43dcc7"/><stop offset=".5" stop-color="#85ffe0"/><stop offset=".5921" stop-color="#97ffe5"/><stop offset=".7762" stop-color="#c5fff0"/><stop offset=".9812" stop-color="#fff"/></linearGradient><linearGradient id="SVGID_12_" gradientUnits="userSpaceOnUse" x1="166.025" x2="563.043" y1="385.333" y2="-11.685"><stop offset=".014" stop-color="#43dcc7"/><stop offset=".5" stop-color="#85ffe0"/><stop offset=".5957" stop-color="#97ffe5"/><stop offset=".787" stop-color="#c5fff0"/><stop offset="1" stop-color="#fff"/></linearGradient><linearGradient id="SVGID_13_" gradientTransform="matrix(-1 0 0 -1 572 930.036)" gradientUnits="userSpaceOnUse" x1="472.28" x2="17.847" xlink:href="#lg1" y1="454.544" y2="908.976"/><linearGradient id="SVGID_14_" gradientUnits="userSpaceOnUse" x1="168.012" x2="356.294" xlink:href="#lg2" y1="326.445" y2="138.164"/><linearGradient id="SVGID_15_" gradientUnits="userSpaceOnUse" x1="179.119" x2="415.31" xlink:href="#lg2" y1="272.854" y2="36.663"/><linearGradient id="SVGID_16_" gradientUnits="userSpaceOnUse" x1="105.548" x2="446.907" xlink:href="#lg1" y1="318.035" y2="-23.324"/><linearGradient id="SVGID_17_" gradientUnits="userSpaceOnUse" x1="163.762" x2="512.548" xlink:href="#lg1" y1="166.74" y2="-182.047"/><linearGradient id="SVGID_18_" gradientUnits="userSpaceOnUse" x1="207.665" x2="434.495" xlink:href="#lg3" y1="427.734" y2="200.904"/><linearGradient id="SVGID_19_" gradientUnits="userSpaceOnUse" x1="155.339" x2="330.792" xlink:href="#lg3" y1="480.2" y2="304.747"/><g><circle cx="256" cy="256" fill="url(#SVGID_1_)" r="256"/><circle cx="256" cy="256" fill="url(#SVGID_2_)" r="256"/><path d="m408.231 136.545c-10.149-.289-20.297-.55-30.446-.781 2.083 91.06 1.488 182.12-1.785 273.18 10-.364 20-.773 30-1.227 8.276-.383 15.333-7.44 15.716-15.716 3.636-80 4.364-160 2.182-240-.23-8.278-7.265-15.21-15.667-15.456z" fill="url(#SVGID_3_)"/><path d="m377.785 135.764c-91.339-2.083-182.678-1.822-274.017.781-8.402.246-15.437 7.179-15.666 15.456-2.182 80-1.455 160 2.182 240 .383 8.276 7.439 15.334 15.716 15.716 20 .909 40 1.637 60 2.182 29.591-14.446 59.647-29.523 90-44.898 30.353 15.375 60.409 30.452 90 44.898 10-.273 20-.591 30-.955 8.276-.306 15.271-7.358 15.586-15.704 2.975-80.661 3.57-161.322 1.785-241.983-.189-8.347-7.183-15.297-15.586-15.493z" fill="url(#SVGID_4_)"/><path d="m149.156 150.661c-5.088.087-10.176.18-15.263.279-5.187 5.158-10.378 10.305-15.57 15.44-.92 49.894-.93 99.788-.028 149.681 5.191 5.133 10.382 10.279 15.568 15.435 5.089.097 10.178.189 15.267.274-1.015-60.37-1.006-120.739.026-181.109z" fill="url(#SVGID_5_)"/><path d="m103.366 151.61c-1.475 59.743-1.488 119.486-.038 179.229 10.178.244 20.356.464 30.534.658-1.16-60.185-1.149-120.37.03-180.556-10.175.198-20.351.421-30.526.669z" fill="url(#SVGID_6_)"/><path d="m408.634 151.61c-5.088-.124-10.176-.242-15.263-.353-4.976 4.93-9.974 9.885-14.991 14.861.818 50.067.826 100.135.025 150.203 5.019 4.978 10.02 9.934 15 14.866 5.089-.109 10.178-.225 15.267-.347 1.45-59.745 1.437-119.488-.038-179.23z" fill="url(#SVGID_7_)"/><path d="m362.844 150.661c1.032 60.37 1.041 120.739.027 181.109 10.178-.17 20.356-.365 30.534-.585 1.305-59.976 1.293-119.953-.034-179.929-10.176-.223-20.351-.421-30.527-.595z" fill="url(#SVGID_8_)"/><path d="m348.083 287.79c-51.269 15.635-102.407 31.333-153.136 46.162-.793-81.736-.529-163.471.793-245.207 50.217-.826 100.434-.62 150.651.62 1.611 66.142 2.175 132.284 1.692 198.425z" fill="url(#SVGID_9_)"/><path d="m317.054 333.953c-50.729-14.83-101.868-30.527-153.136-46.162-.484-66.142.081-132.283 1.692-198.425 50.217-1.24 100.434-1.446 150.651-.62.51 31.502.862 63.005 1.058 94.507-5.084 4.226-10.176 8.462-15.277 12.706 5.131 4.282 10.265 8.562 15.4 12.836.146 41.72.017 83.438-.388 125.158z" fill="url(#SVGID_10_)"/><path d="m346 409.898c-10 .273-20 .5-30 .682-9.636-20.252-19.521-40.616-29.554-61.041 10.265-20.541 20.612-41.079 30.942-61.562 10.231-.05 20.463-.112 30.694-.186-.297 40.702-.991 81.404-2.082 122.107z" fill="url(#SVGID_11_)"/><path d="m317.054 333.953c-40.95 25.939-81.508 51.812-121.054 76.627-10-.182-20-.409-30-.682-1.091-40.702-1.785-81.405-2.083-122.107 51.157.372 102.314.434 153.471.186-.074 15.325-.186 30.65-.334 45.976z" fill="url(#SVGID_12_)"/><path d="m194.81 318.627c10.198.083 20.397.145 30.595.186 10.26 15.404 20.477 30.812 30.595 46.187-10.118 15.375-20.136 30.717-30 45.989-10-.091-20-.227-30-.409-.545-30.651-.942-61.302-1.19-91.953z" fill="url(#SVGID_13_)"/><path d="m309.609 175.54c-8.509-.052-17.019-.093-25.528-.12.044 13.657.074 27.315.091 40.972 8.537.011 17.074.026 25.611.046 4.241.01 7.674-3.415 7.659-7.643-.03-8.514-.071-17.028-.124-25.542-.027-4.229-3.483-7.688-7.709-7.713z" fill="url(#SVGID_14_)"/><path d="m291.841 208.724c-.017-8.533-.042-17.064-.072-25.597-.016-4.237-3.461-7.693-7.688-7.707-4.229-.011-7.667-3.464-7.677-7.706-.022-8.538-.048-17.077-.078-25.616-.016-4.244-3.439-7.698-7.639-7.708-8.457-.02-16.915-.02-25.372 0-4.201.011-7.624 3.467-7.639 7.708-.03 8.538-.056 17.077-.078 25.616-.01 4.241-3.449 7.693-7.677 7.706-8.509.027-17.019.067-25.528.12-4.227.024-7.682 3.483-7.709 7.713-.053 8.514-.094 17.028-.124 25.542-.016 4.228 3.418 7.653 7.659 7.643 8.537-.02 17.074-.035 25.611-.046 4.24-.005 7.679 3.435 7.677 7.677-.005 8.538-.007 17.077-.005 25.616.001 4.24 3.446 7.686 7.689 7.688 8.54.003 17.08.003 25.62 0 4.243-.002 7.688-3.447 7.689-7.688.002-8.538.001-17.077-.005-25.616-.002-4.245 3.436-7.682 7.677-7.677s7.678-3.428 7.669-7.668z" fill="url(#SVGID_15_)"/><path d="m346 74.102c-10-.273-20-.5-30-.682.182 10.217.347 20.434.496 30.651 10.083.148 20.165.334 30.248.558 8.358.179 14.958-6.455 14.712-14.861-.246-8.401-7.179-15.437-15.456-15.666z" fill="url(#SVGID_16_)"/><path d="m331.325 89.025c-.178-8.447-7.048-15.45-15.325-15.604-50-.909-100-.682-150 .682-8.277.23-15.21 7.263-15.456 15.666s6.354 15.041 14.712 14.861c50.413-1.115 100.826-1.302 151.24-.558 8.358.119 15.006-6.602 14.829-15.047z" fill="url(#SVGID_17_)"/><path d="m240.703 318.86c-5.099-.01-10.198-.026-15.298-.047.124 30.725.322 61.45.595 92.176 30 .273 60 .136 90-.409.091-5.108.178-10.217.26-15.325-24.695-25.13-50.01-50.724-75.557-76.395z" fill="url(#SVGID_18_)"/><path d="m240.703 318.86c.215 42.451 34.089 77.105 75.558 76.395.413-25.542.723-51.085.93-76.627-25.497.206-50.993.284-76.488.232z" fill="url(#SVGID_19_)"/></g></svg>