<svg height="512" viewBox="0 0 64 64" width="512" xmlns="http://www.w3.org/2000/svg" xmlns:xlink="http://www.w3.org/1999/xlink"><linearGradient id="New_Gradient_Swatch_3" gradientUnits="userSpaceOnUse" x1="32" x2="32" y1="62.638" y2="5.101"><stop offset="0" stop-color="#006df0"/><stop offset="1" stop-color="#00e7f0"/></linearGradient><linearGradient id="New_Gradient_Swatch_3-2" x1="45" x2="45" xlink:href="#New_Gradient_Swatch_3" y1="62.638" y2="5.101"/><linearGradient id="New_Gradient_Swatch_3-3" x1="28" x2="28" xlink:href="#New_Gradient_Swatch_3" y1="62.638" y2="5.101"/><linearGradient id="New_Gradient_Swatch_3-5" x1="36" x2="36" xlink:href="#New_Gradient_Swatch_3" y1="62.638" y2="5.101"/><linearGradient id="New_Gradient_Swatch_3-7" x1="20" x2="20" xlink:href="#New_Gradient_Swatch_3" y1="62.638" y2="5.101"/><linearGradient id="New_Gradient_Swatch_3-9" x1="44" x2="44" xlink:href="#New_Gradient_Swatch_3" y1="62.638" y2="5.101"/><linearGradient id="New_Gradient_Swatch_3-11" x1="12.5" x2="12.5" xlink:href="#New_Gradient_Swatch_3" y1="62.638" y2="5.101"/><linearGradient id="New_Gradient_Swatch_3-12" x1="10.5" x2="10.5" xlink:href="#New_Gradient_Swatch_3" y1="62.638" y2="5.101"/><g id="drug-medical-coronavirus-covid19-hospital"><path d="m57.62 22.61a31 31 0 0 0 -5.58-8.84l-1.04-1.15v-2.62h1a1 1 0 0 0 1-1v-4a3.009 3.009 0 0 0 -3-3h-10a3.009 3.009 0 0 0 -3 3v4a1 1 0 0 0 1 1h1v2.62l-1.04 1.15a30.966 30.966 0 0 0 -7.96 20.74v5.49h-2v-11a6.885 6.885 0 0 0 -2.05-4.94 7.135 7.135 0 0 0 -4.96-2.05 1 1 0 0 1 -.99-.99v-1.02h1a1 1 0 0 0 1-1v-4a3.009 3.009 0 0 0 -3-3h-6a3.009 3.009 0 0 0 -3 3v4a1 1 0 0 0 1 1h1v1.03a1 1 0 0 1 -.93.99c-4.1.29-7.07 3.22-7.07 6.98v20a3.009 3.009 0 0 0 3 3h4v5a5 5 0 0 0 5 5h32a5.017 5.017 0 0 0 4.9-4h2.1a5 5 0 0 0 5-5v-18.49a30.864 30.864 0 0 0 -2.38-11.9zm-18.62-17.61a1 1 0 0 1 1-1h10a1 1 0 0 1 1 1v3h-12zm10 5v2h-8v-2zm-9.56 5.11 1-1.11h9.12l1 1.11a29.193 29.193 0 0 1 4.6 6.89h-20.32a29.193 29.193 0 0 1 4.6-6.89zm-27.44-.11a1 1 0 0 1 1-1h6a1 1 0 0 1 1 1v3h-8zm-6 14c0-2.72 2.14-4.77 5.21-4.98a3.01 3.01 0 0 0 2.79-2.99v-1.03h4v1.02a3.011 3.011 0 0 0 2.89 2.99 5.2 5.2 0 0 1 3.65 1.46 4.953 4.953 0 0 1 1.46 3.53v11h-4v-9a1 1 0 0 0 -1-1h-15zm5 21h-4a1 1 0 0 1 -1-1v-3h5zm.1-6h-5.1v-12h14v8h-4a5.017 5.017 0 0 0 -4.9 4zm39.9 13a3.009 3.009 0 0 1 -3 3h-32a3.009 3.009 0 0 1 -3-3v-12a3.009 3.009 0 0 1 3-3h32a3.009 3.009 0 0 1 3 3zm7-4a3.009 3.009 0 0 1 -3 3h-2v-11a4.924 4.924 0 0 0 -1.03-3h6.03zm0-13h-26v-5.49a29.012 29.012 0 0 1 1.97-10.51h22.06a29.012 29.012 0 0 1 1.97 10.51z" fill="url(#New_Gradient_Swatch_3)"/><path d="m48 35h2a1 1 0 0 0 1-1v-4a1 1 0 0 0 -1-1h-2v-2a1 1 0 0 0 -1-1h-4a1 1 0 0 0 -1 1v2h-2a1 1 0 0 0 -1 1v4a1 1 0 0 0 1 1h2v2a1 1 0 0 0 1 1h4a1 1 0 0 0 1-1zm-1-2a1 1 0 0 0 -1 1v2h-2v-2a1 1 0 0 0 -1-1h-2v-2h2a1 1 0 0 0 1-1v-2h2v2a1 1 0 0 0 1 1h2v2z" fill="url(#New_Gradient_Swatch_3-2)"/><path d="m28 44a3 3 0 1 0 3 3 3 3 0 0 0 -3-3zm0 4a1 1 0 1 1 1-1 1 1 0 0 1 -1 1z" fill="url(#New_Gradient_Swatch_3-3)"/><path d="m28 52a3 3 0 1 0 3 3 3 3 0 0 0 -3-3zm0 4a1 1 0 1 1 1-1 1 1 0 0 1 -1 1z" fill="url(#New_Gradient_Swatch_3-3)"/><path d="m36 44a3 3 0 1 0 3 3 3 3 0 0 0 -3-3zm0 4a1 1 0 1 1 1-1 1 1 0 0 1 -1 1z" fill="url(#New_Gradient_Swatch_3-5)"/><path d="m36 52a3 3 0 1 0 3 3 3 3 0 0 0 -3-3zm0 4a1 1 0 1 1 1-1 1 1 0 0 1 -1 1z" fill="url(#New_Gradient_Swatch_3-5)"/><path d="m20 44a3 3 0 1 0 3 3 3 3 0 0 0 -3-3zm0 4a1 1 0 1 1 1-1 1 1 0 0 1 -1 1z" fill="url(#New_Gradient_Swatch_3-7)"/><path d="m20 52a3 3 0 1 0 3 3 3 3 0 0 0 -3-3zm0 4a1 1 0 1 1 1-1 1 1 0 0 1 -1 1z" fill="url(#New_Gradient_Swatch_3-7)"/><path d="m44 44a3 3 0 1 0 3 3 3 3 0 0 0 -3-3zm0 4a1 1 0 1 1 1-1 1 1 0 0 1 -1 1z" fill="url(#New_Gradient_Swatch_3-9)"/><path d="m44 52a3 3 0 1 0 3 3 3 3 0 0 0 -3-3zm0 4a1 1 0 1 1 1-1 1 1 0 0 1 -1 1z" fill="url(#New_Gradient_Swatch_3-9)"/><path d="m17 34h-9a1 1 0 0 0 0 2h9a1 1 0 0 0 0-2z" fill="url(#New_Gradient_Swatch_3-11)"/><path d="m13 38h-5a1 1 0 0 0 0 2h5a1 1 0 0 0 0-2z" fill="url(#New_Gradient_Swatch_3-12)"/></g></svg>