<svg id="Capa_1" enable-background="new 0 0 512 512" height="512" viewBox="0 0 512 512" width="512" xmlns="http://www.w3.org/2000/svg"><g><g><path clip-rule="evenodd" d="m410.43 179.663c41.09-42.583 41.09-112.239 0-154.822-37.323-38.669-97.629-28.972-137.521 6.951-7.359 6.63-9.958 9.93-11.915 9.93-1.986 0-4.585-3.3-11.944-9.93-39.893-35.924-100.199-45.62-137.521-6.951-41.09 42.583-41.09 112.239 0 154.822 46.288 45.912 92.606 91.795 138.923 137.707 5.257 4.176 7.885 6.455 10.543 6.542 2.628-.088 5.257-2.366 10.513-6.542 46.317-45.912 92.634-91.795 138.922-137.707z" fill="#ffcccf" fill-rule="evenodd"/></g><g><path clip-rule="evenodd" d="m448.191 506.772v-137.532c0-2.862-2.366-5.228-5.228-5.228h-362.479c-2.862 0-5.228 2.366-5.228 5.228v137.532c0 2.891 2.366 5.228 5.228 5.228h362.479c2.863 0 5.228-2.336 5.228-5.228z" fill="#c3ddff" fill-rule="evenodd"/></g><g><path d="m132.672 480.356c-4.271 0-7.733-3.459-7.733-7.726v-69.102c0-3.382 2.202-6.371 5.433-7.377 3.229-1.003 6.742.204 8.665 2.99l34.202 49.532-.434-45.216c-.041-4.268 3.388-7.76 7.658-7.801h.076c4.236 0 7.69 3.41 7.731 7.652l.642 66.911c.001 4.334-2.39 7.837-6.09 8.999-3.613 1.133-7.449-.278-9.767-3.601l-32.65-47.285v44.297c0 4.268-3.462 7.727-7.733 7.727z" fill="#576b74"/></g><g><path d="m258.599 480.356c-23.362 0-42.368-18.991-42.368-42.335 0-23.36 19.007-42.365 42.368-42.365 8.457 0 16.647 2.507 23.686 7.248 3.54 2.386 4.476 7.188 2.088 10.726s-7.193 4.474-10.735 2.087c-4.475-3.015-9.675-4.609-15.039-4.609-14.834 0-26.903 12.072-26.903 26.912 0 14.823 12.069 26.882 26.903 26.882 13.002 0 19.331-9.165 21.375-19.156h-12.204c-4.271 0-7.733-3.459-7.733-7.726s3.462-7.726 7.733-7.726h20.706c4.271 0 7.733 3.459 7.733 7.726-.001 24.928-15.467 42.336-37.61 42.336z" fill="#576b74"/></g><g><path d="m356.169 480.356c-23.362 0-42.369-18.991-42.369-42.335 0-23.36 19.007-42.365 42.369-42.365 23.346 0 42.34 19.005 42.34 42.365 0 23.344-18.994 42.335-42.34 42.335zm0-69.247c-14.835 0-26.903 12.072-26.903 26.912 0 14.823 12.069 26.882 26.903 26.882 14.818 0 26.874-12.059 26.874-26.882 0-14.84-12.055-26.912-26.874-26.912z" fill="#576b74"/></g><g><path clip-rule="evenodd" d="m496.699 282.118c11.068-11.478 11.068-30.228 0-41.677-.117-.117-.234-.234-.35-.35-10.046-9.988-26.05-7.331-36.651 2.22-1.986 1.782-2.687 2.687-3.242 2.658-.526.029-1.227-.876-3.212-2.658-10.718-9.667-26.955-12.267-37.001-1.869-11.068 11.449-11.068 30.199 0 41.677l4.497 4.439 32.884 32.623c1.431 1.11 2.132 1.723 2.833 1.752.73-.029 1.431-.643 2.862-1.752l32.884-32.623 4.147-4.118z" fill="#ff8086" fill-rule="evenodd"/></g><g><path clip-rule="evenodd" d="m260.994 248.268-4.994-22.143-23.597-6.829-40.184 40.363 28.824 28.563 21.114-21.116z" fill="#e5646e" fill-rule="evenodd"/></g><g><path clip-rule="evenodd" d="m308.041 129.954c3.636-2.899 5.657-10.239 6.041-16.634.365-6.062.027-13.907-3.413-21.188-20.443-25.03-78.938-25.03-99.381 0-2.717 6.937-3.598 14.033-3.405 19.299.282 7.696 1.203 12.362 6.033 18.523 21.495-21.174 72.631-21.174 94.125 0z" fill="#e5646e" fill-rule="evenodd"/></g><g><path clip-rule="evenodd" d="m410.43 179.663c41.09-42.583 41.09-112.239 0-154.822-16.179-16.764-36.651-24.416-57.94-24.825 35.483 42.875 33.643 108.063-5.52 148.63l-13.463 13.347c-6.162 18.137-22.107 35.135-42.112 55.433l-1.84 1.869 40.185 40.363 64.044-63.465z" fill="#e7b1b9" fill-rule="evenodd"/></g><g><path clip-rule="evenodd" d="m300.916 288.222-21.114-21.116-18.807-18.838-18.837 18.838-21.114 21.116 29.408 29.148c5.257 4.176 7.885 6.455 10.543 6.542 2.628-.088 5.257-2.366 10.513-6.542z" fill="#e7b1b9" fill-rule="evenodd"/></g><g><path clip-rule="evenodd" d="m448.191 506.772v-137.532c0-2.862-2.366-5.228-5.228-5.228h-34.139c2.862 0 5.228 2.366 5.228 5.228v137.532c0 2.891-2.366 5.228-5.228 5.228h34.139c2.863 0 5.228-2.336 5.228-5.228z" fill="#9dc6fb" fill-rule="evenodd"/></g><g><path clip-rule="evenodd" d="m496.699 282.118c11.068-11.478 11.068-30.228 0-41.677l-.35-.35c-6.25-6.221-14.777-7.535-22.896-5.374 10.134 11.536 9.812 29.557-.935 40.684l-4.468 4.439-27.043 26.811 12.616 12.529c1.431 1.11 2.132 1.723 2.833 1.752.73-.029 1.431-.643 2.862-1.752l32.884-32.623 4.147-4.118z" fill="#e5646e" fill-rule="evenodd"/></g><g><path clip-rule="evenodd" d="m95.758 282.118c11.039-11.478 11.039-30.228 0-41.677-.117-.117-.234-.234-.35-.35-10.075-9.988-26.05-7.331-36.68 2.22-1.986 1.782-2.687 2.687-3.212 2.658-.526.029-1.227-.876-3.212-2.658-10.718-9.667-26.955-12.267-37.001-1.869-11.068 11.449-11.068 30.199 0 41.677l4.468 4.439 32.913 32.623c1.431 1.11 2.132 1.723 2.833 1.752.701-.029 1.431-.643 2.833-1.752l32.913-32.623 4.147-4.118z" fill="#ff8086" fill-rule="evenodd"/></g><g><path clip-rule="evenodd" d="m95.758 282.118c11.039-11.478 11.039-30.228 0-41.677l-.35-.35c-6.25-6.221-14.806-7.535-22.925-5.374 10.134 11.536 9.842 29.557-.905 40.684l-4.497 4.439-27.043 26.811 12.645 12.529c1.431 1.11 2.132 1.723 2.833 1.752.701-.029 1.431-.643 2.833-1.752l32.913-32.623 4.147-4.118z" fill="#e5646e" fill-rule="evenodd"/></g><g><path clip-rule="evenodd" d="m291.395 217.427c42.054-42.67 66.088-70.737 19.275-125.294.701 16.063.146 27.746-2.628 37.822-3.767 13.698-11.652 24.416-26.108 39.107l-20.939 21.233 4.629 22.438 23.932 6.563z" fill="#ff8086" fill-rule="evenodd"/></g><g><path clip-rule="evenodd" d="m289.555 219.296-28.561-29.002-20.968-21.233c-14.456-14.691-22.341-25.409-26.108-39.107-2.774-10.076-3.3-21.759-2.628-37.822-46.814 54.557-22.75 82.624 19.275 125.294l1.84 1.869 28.591 28.973 18.807 18.838 21.114 21.116 28.824-28.564z" fill="#ff8086" fill-rule="evenodd"/></g><g><path clip-rule="evenodd" d="m260.994 190.294 28.561 29.002 13.113-13.377-27.773-28.534z" fill="#e5646e" fill-rule="evenodd"/></g></g></svg>