<svg id="Capa_1" enable-background="new 0 0 512 512" height="512" viewBox="0 0 512 512" width="512" xmlns="http://www.w3.org/2000/svg" xmlns:xlink="http://www.w3.org/1999/xlink"><linearGradient id="SVGID_1_" gradientUnits="userSpaceOnUse" x1="256" x2="256" y1="436.5" y2="75.5"><stop offset="0" stop-color="#5558ff"/><stop offset="1" stop-color="#00c0ff"/></linearGradient><linearGradient id="lg1"><stop offset="0" stop-color="#addcff"/><stop offset=".5028" stop-color="#eaf6ff"/><stop offset="1" stop-color="#eaf6ff"/></linearGradient><linearGradient id="SVGID_2_" gradientUnits="userSpaceOnUse" x1="211" x2="211" xlink:href="#lg1" y1="316.5" y2="166.5"/><linearGradient id="SVGID_3_" gradientUnits="userSpaceOnUse" x1="316" x2="316" xlink:href="#lg1" y1="376.5" y2="256.5"/><g><g><path d="m391 436.5h-270c-66.182 0-121-53.833-121-120 0-29.004 11.723-56.792 31.293-78.911 2.9-90.22 75.674-162.089 164.707-162.089 50.303 0 97.764 24.145 129.023 63.417 7.266-1.626 14.209-2.417 20.977-2.417 46.465 0 86.514 29.897 100.078 73.682 39.61 20.551 65.922 61.714 65.922 106.318 0 66.167-54.818 120-121 120z" fill="url(#SVGID_1_)"/></g><g id="Oxy_1_"><g><path d="m211 316.5c-33.076 0-60-33.647-60-75s26.924-75 60-75 60 33.647 60 75-26.924 75-60 75zm0-120c-16.26 0-30 20.61-30 45s13.74 45 30 45 30-20.61 30-45-13.74-45-30-45z" fill="url(#SVGID_2_)"/></g><g><path d="m346 376.5h-60c-6.943 0-12.979-4.775-14.59-11.543s1.67-13.755 7.881-16.875c21.68-10.869 51.709-33.12 51.709-46.582 0-8.276-6.738-15-15-15s-15 6.724-15 15c0 8.291-6.709 15-15 15s-15-6.709-15-15c0-24.814 20.186-45 45-45s45 20.186 45 45c0 17.007-11.777 32.563-25.693 45h10.693c8.291 0 15 6.709 15 15s-6.709 15-15 15z" fill="url(#SVGID_3_)"/></g></g></g></svg>