<svg id="Capa_1" enable-background="new 0 0 512 512" height="512" viewBox="0 0 512 512" width="512" xmlns="http://www.w3.org/2000/svg" xmlns:xlink="http://www.w3.org/1999/xlink"><linearGradient id="SVGID_1_" gradientUnits="userSpaceOnUse" x1="256" x2="256" y1="512" y2="0"><stop offset="0" stop-color="#addcff"/><stop offset=".5028" stop-color="#eaf6ff"/><stop offset="1" stop-color="#eaf6ff"/></linearGradient><linearGradient id="SVGID_2_" gradientUnits="userSpaceOnUse" x1="256" x2="256" y1="362.5" y2="149.5"><stop offset="0" stop-color="#00c0ff"/><stop offset="1" stop-color="#5558ff"/></linearGradient><g><g><circle cx="256" cy="256" fill="url(#SVGID_1_)" r="256"/></g><g><g><g><g><path d="m229.353 220.5c-9.628 0-17.765 12.194-17.765 26.625s8.136 26.625 17.765 26.625c9.628 0 17.765-12.194 17.765-26.625s-8.137-26.625-17.765-26.625zm139.203 8.095c-8.041-25.906-31.747-43.595-59.262-43.595-4.008 0-8.119.468-12.43 1.43-18.493-23.236-46.606-36.93-76.393-36.93-52.713 0-95.815 41.931-97.532 95.311-11.598 13.087-17.939 29.528-17.939 46.689 0 39.149 31.878 71 71.059 71h159.882c39.181 0 71.059-31.851 71.059-71 0-26.391-14.989-50.754-38.444-62.905zm-139.203 62.905c-19.595 0-35.53-19.908-35.53-44.375s15.935-44.375 35.53-44.375 35.529 19.908 35.529 44.375-15.934 44.375-35.529 44.375zm79.941 17.75c4.909 0 8.882 3.969 8.882 8.875s-3.972 8.875-8.882 8.875h-35.53c-4.12 0-7.694-2.825-8.639-6.83s.98-8.138 4.658-9.984c12.846-6.431 30.629-19.596 30.629-27.561 0-4.897-3.981-8.875-8.882-8.875s-8.882 3.978-8.882 8.875c0 4.906-3.973 8.875-8.882 8.875-4.91 0-8.882-3.969-8.882-8.875 0-14.682 11.953-26.625 26.647-26.625s26.647 11.943 26.647 26.625c0 10.063-6.974 19.267-15.215 26.625z" fill="url(#SVGID_2_)"/></g></g></g></g></g></svg>