<svg height="512" viewBox="0 0 64 64" width="512" xmlns="http://www.w3.org/2000/svg"><g id="flat"><path d="m36 53h-8l-1-4h10z" fill="#5277b9"/><path d="m33 61h-2l-1-8h4z" fill="#3e5496"/><path d="m38 7v-2a2 2 0 0 0 -2-2h-8a2 2 0 0 0 -2 2v2h-6c-2.913 0-5.223 2.1-5 5l2 19-1 9c-.254 1.524.406 3 1.951 3h.049l1 4h2l.621-2.485a2 2 0 0 1 1.941-1.515h.744a2 2 0 0 1 1.973 1.671l.721 4.329h10l.721-4.329a2 2 0 0 1 1.973-1.671h.744a2 2 0 0 1 1.941 1.515l.621 2.485h2l1-4c1.56 0 2.275-1.465 2-3l-1-8 2-20a4.712 4.712 0 0 0 -5-5z" fill="#50b4f8"/><path d="m18 47h4v4h-4z" fill="#5277b9"/><path d="m42 47h4v4h-4z" fill="#5277b9"/><path d="m29 6h6v2h-6z" fill="#f4f4e6"/><path d="m21 11h22v28h-22z" fill="#ffd782"/><path d="m43 17c-3.668 0-3.668-1.992-7.335-1.992s-3.665 1.992-7.335 1.992-3.665-1.992-7.33-1.992v23.992h22z" fill="#f9bb4b"/><path d="m21 21h18v12h-18z" fill="#f4f4e6"/><g fill="#394d5c"><path d="m24 24h6v2h-6z"/><path d="m32 24h4v2h-4z"/><path d="m24 28h4v2h-4z"/><path d="m30 28h6v2h-6z"/></g></g></svg>