<svg id="Capa_1" enable-background="new 0 0 510 510" height="512" viewBox="0 0 510 510" width="512" xmlns="http://www.w3.org/2000/svg" xmlns:xlink="http://www.w3.org/1999/xlink"><linearGradient id="lg1"><stop offset="0" stop-color="#fd4755"/><stop offset="1" stop-color="#d2024e"/></linearGradient><linearGradient id="SVGID_1_" gradientTransform="matrix(.891 -.455 .455 .891 -1161.169 399.841)" gradientUnits="userSpaceOnUse" x1="1201.96" x2="1271.948" xlink:href="#lg1" y1="261.121" y2="331.108"/><linearGradient id="lg2"><stop offset="0" stop-color="#c00148" stop-opacity="0"/><stop offset="1" stop-color="#6d3326"/></linearGradient><linearGradient id="SVGID_2_" gradientTransform="matrix(.891 -.455 .455 .891 -1161.169 399.841)" gradientUnits="userSpaceOnUse" x1="1220.799" x2="1220.799" xlink:href="#lg2" y1="285.982" y2="330.537"/><linearGradient id="SVGID_3_" gradientTransform="matrix(.891 -.455 .455 .891 -1161.169 399.841)" gradientUnits="userSpaceOnUse" x1="1183.429" x2="1234.033" xlink:href="#lg1" y1="337.204" y2="421.356"/><linearGradient id="SVGID_4_" gradientTransform="matrix(.891 -.455 .455 .891 -1161.169 399.841)" gradientUnits="userSpaceOnUse" x1="1264.26" x2="1206.784" xlink:href="#lg2" y1="399.846" y2="457.909"/><linearGradient id="SVGID_5_" gradientTransform="matrix(.891 -.455 .455 .891 -1161.169 399.841)" gradientUnits="userSpaceOnUse" x1="1221.201" x2="1231.847" xlink:href="#lg2" y1="350.508" y2="401.375"/><linearGradient id="lg3"><stop offset="0" stop-color="#26a6fe"/><stop offset="1" stop-color="#2740b0"/></linearGradient><linearGradient id="SVGID_6_" gradientTransform="matrix(-.891 -.455 -.455 .891 1377.367 399.841)" gradientUnits="userSpaceOnUse" x1="940.338" x2="1010.325" xlink:href="#lg3" y1="127.431" y2="197.418"/><linearGradient id="lg4"><stop offset="0" stop-color="#2740b0" stop-opacity="0"/><stop offset="1" stop-color="#192a7d"/></linearGradient><linearGradient id="SVGID_7_" gradientTransform="matrix(-.891 -.455 -.455 .891 1377.367 399.841)" gradientUnits="userSpaceOnUse" x1="959.177" x2="959.177" xlink:href="#lg4" y1="152.292" y2="196.847"/><linearGradient id="SVGID_8_" gradientUnits="userSpaceOnUse" x1="386.583" x2="441.451" xlink:href="#lg3" y1="167.173" y2="320.402"/><linearGradient id="SVGID_9_" gradientTransform="matrix(-.891 -.455 -.455 .891 1377.367 399.841)" gradientUnits="userSpaceOnUse" x1="1002.638" x2="945.161" xlink:href="#lg4" y1="266.156" y2="324.219"/><linearGradient id="SVGID_10_" gradientTransform="matrix(-.891 -.455 -.455 .891 1377.367 399.841)" gradientUnits="userSpaceOnUse" x1="959.578" x2="970.224" xlink:href="#lg4" y1="216.818" y2="267.685"/><linearGradient id="lg5"><stop offset="0" stop-color="#fee97d"/><stop offset="1" stop-color="#fac600"/></linearGradient><linearGradient id="SVGID_11_" gradientUnits="userSpaceOnUse" x1="236.163" x2="306.151" xlink:href="#lg5" y1="26.869" y2="96.857"/><linearGradient id="lg6"><stop offset="0" stop-color="#fac600" stop-opacity="0"/><stop offset=".6899" stop-color="#d68c3d" stop-opacity=".69"/><stop offset="1" stop-color="#c5715a"/></linearGradient><linearGradient id="SVGID_12_" gradientUnits="userSpaceOnUse" x1="255.002" x2="255.002" xlink:href="#lg6" y1="51.731" y2="96.285"/><linearGradient id="SVGID_13_" gradientUnits="userSpaceOnUse" x1="216.942" x2="266.947" xlink:href="#lg5" y1="105.964" y2="189.118"/><linearGradient id="SVGID_14_" gradientUnits="userSpaceOnUse" x1="297.306" x2="241.218" xlink:href="#lg6" y1="166.764" y2="223.424"/><linearGradient id="SVGID_15_" gradientUnits="userSpaceOnUse" x1="255.393" x2="265.747" xlink:href="#lg6" y1="116.204" y2="165.675"/><linearGradient id="SVGID_16_" gradientUnits="userSpaceOnUse" x1="119.759" x2="406.356" y1="315.196" y2="601.794"><stop offset="0" stop-color="#a0d4ff"/><stop offset="1" stop-color="#0593fc"/></linearGradient><linearGradient id="lg7"><stop offset="0" stop-color="#a2e62e"/><stop offset=".1231" stop-color="#97de30"/><stop offset=".3395" stop-color="#79cb36"/><stop offset=".6234" stop-color="#4aab3f"/><stop offset=".9609" stop-color="#09804c"/><stop offset="1" stop-color="#017b4e"/></linearGradient><linearGradient id="SVGID_17_" gradientUnits="userSpaceOnUse" x1="198.17" x2="532.673" xlink:href="#lg7" y1="277.823" y2="612.326"/><linearGradient id="SVGID_18_" gradientUnits="userSpaceOnUse" x1="11.517" x2="101.289" xlink:href="#lg7" y1="454.142" y2="543.913"/><linearGradient id="SVGID_19_" gradientUnits="userSpaceOnUse" x1="255.015" x2="255.015" y1="425.098" y2="533.135"><stop offset="0" stop-color="#2740b0" stop-opacity="0"/><stop offset=".2638" stop-color="#253da9" stop-opacity=".264"/><stop offset=".6642" stop-color="#1f3494" stop-opacity=".664"/><stop offset="1" stop-color="#192a7d"/></linearGradient><g><g><g><g><circle cx="53.312" cy="93.632" fill="url(#SVGID_1_)" r="45.708"/><path d="m74.111 134.334c22.479-11.487 31.39-39.022 19.903-61.501l-81.404 41.598c11.487 22.479 39.022 31.39 61.501 19.903z" fill="url(#SVGID_2_)"/></g><g><path d="m156.436 144.061c11.409-5.83 15.932-19.805 10.102-31.215-5.83-11.409-19.806-15.932-31.215-10.102l-122.675 62.688c-11.409 5.83-15.932 19.805-10.102 31.215 5.83 11.409 19.805 15.932 31.215 10.102l23.71-12.116 2.436 4.767c7.729 15.126 11.536 31.951 11.072 48.931l-1.145 41.82c-.346 12.636 9.269 23.589 21.891 24.281 13.096.718 24.12-9.505 24.477-22.529l1.953-71.377 58.988 40.236c10.764 7.342 25.507 4.397 32.598-6.636 6.834-10.634 3.591-24.843-6.851-31.966l-34.562-23.574c-14.033-9.572-25.437-22.514-33.166-37.64l-2.436-4.767z" fill="url(#SVGID_3_)"/><path d="m202.89 222.158-34.562-23.574c-14.033-9.572-25.437-22.514-33.166-37.64l-2.436-4.767 23.71-12.116c11.409-5.83 15.932-19.805 10.102-31.215-5.83-11.409-19.806-15.932-31.215-10.102l-61.338 31.344 44.17 86.437 58.988 40.236c10.764 7.342 25.507 4.397 32.598-6.636 6.834-10.635 3.591-24.844-6.851-31.967z" fill="url(#SVGID_4_)"/><g><path d="m135.323 102.744-122.675 62.688c-11.409 5.83-15.932 19.805-10.102 31.215 5.83 11.409 19.805 15.932 31.215 10.102l122.676-62.688c11.409-5.83 15.932-19.805 10.102-31.215-5.831-11.409-19.806-15.932-31.216-10.102z" fill="url(#SVGID_5_)"/></g></g></g><g><g><circle cx="456.688" cy="93.632" fill="url(#SVGID_6_)" r="45.708"/><path d="m435.889 134.334c-22.479-11.487-31.39-39.022-19.903-61.501l81.404 41.598c-11.487 22.479-39.022 31.39-61.501 19.903z" fill="url(#SVGID_7_)"/></g><g><path d="m353.564 144.061c-11.409-5.83-15.932-19.805-10.102-31.215 5.83-11.409 19.806-15.932 31.215-10.102l122.676 62.688c11.409 5.83 15.932 19.805 10.102 31.215-5.83 11.409-19.805 15.932-31.215 10.102l-23.71-12.116-2.436 4.767c-7.729 15.126-11.536 31.951-11.072 48.931l1.145 41.82c.346 12.636-9.269 23.589-21.891 24.281-13.096.718-24.12-9.505-24.477-22.529l-1.953-71.377-58.988 40.236c-10.764 7.342-25.507 4.397-32.598-6.636-6.834-10.634-3.591-24.843 6.851-31.966l34.561-23.574c14.033-9.572 25.437-22.514 33.166-37.64l2.436-4.767z" fill="url(#SVGID_8_)"/><path d="m307.11 222.158 34.561-23.574c14.033-9.572 25.437-22.514 33.166-37.64l2.436-4.767-23.71-12.116c-11.409-5.83-15.932-19.805-10.102-31.215 5.83-11.409 19.806-15.932 31.215-10.102l61.338 31.344-44.169 86.437-58.988 40.236c-10.764 7.342-25.507 4.397-32.598-6.636-6.834-10.635-3.591-24.844 6.851-31.967z" fill="url(#SVGID_9_)"/><g><path d="m374.677 102.744 122.676 62.688c11.409 5.83 15.932 19.805 10.102 31.215-5.83 11.409-19.805 15.932-31.215 10.102l-122.676-62.688c-11.409-5.83-15.932-19.805-10.102-31.215 5.83-11.409 19.805-15.932 31.215-10.102z" fill="url(#SVGID_10_)"/></g></g></g><g><g><circle cx="255.002" cy="45.708" fill="url(#SVGID_11_)" r="45.708"/><path d="m255.002 91.417c25.244 0 45.708-20.464 45.708-45.708h-91.416c0 25.243 20.465 45.708 45.708 45.708z" fill="url(#SVGID_12_)"/></g><g><path d="m318.885 137.539c12.812 0 23.199-10.387 23.199-23.199 0-12.813-10.387-23.199-23.199-23.199h-127.765c-12.813 0-23.199 10.387-23.199 23.199 0 12.813 10.387 23.199 23.199 23.199h21.626v5.353c0 16.986-4.266 33.701-12.406 48.609l-20.049 36.719c-6.058 11.095-2.48 25.223 8.445 31.583 11.335 6.598 25.804 2.512 32.047-8.924l34.219-62.67 34.219 62.67c6.244 11.436 20.713 15.522 32.048 8.924 10.925-6.36 14.502-20.488 8.445-31.583l-20.049-36.719c-8.14-14.909-12.406-31.623-12.406-48.609v-5.353z" fill="url(#SVGID_13_)"/><path d="m329.713 228.22-20.049-36.719c-8.14-14.909-12.406-31.623-12.406-48.609v-5.353h21.626c12.812 0 23.199-10.387 23.199-23.199 0-12.813-10.387-23.199-23.199-23.199h-63.882v97.068l34.219 62.67c6.244 11.436 20.713 15.522 32.048 8.924 10.924-6.36 14.502-20.488 8.444-31.583z" fill="url(#SVGID_14_)"/><g><path d="m318.885 91.141h-127.765c-12.813 0-23.199 10.387-23.199 23.199 0 12.813 10.387 23.199 23.199 23.199h127.764c12.812 0 23.199-10.387 23.199-23.199.001-12.813-10.386-23.199-23.198-23.199z" fill="url(#SVGID_15_)"/></g></g></g></g><g><g><path d="m508.978 486.981c1.105 12.351-8.572 23.01-20.972 23.011-83.653.005-381.507 0-465.694-.001-12.57 0-22.393-10.808-21.257-23.327 5.979-65.935 37.057-124.623 83.603-166.434 45.155-40.562 104.868-62.24 170.345-62.24 48.203 0 93.283 10.375 131.73 33.616 67.694 40.922 114.827 112.431 122.245 195.375z" fill="url(#SVGID_16_)"/><path d="m417.995 472.345c13.885-13.885 13.885-36.397 0-50.283l-24.714-24.714c-13.885-13.885-13.885-36.397 0-50.283 16.256-16.256 13.12-43.559-6.554-55.453-38.447-23.241-83.522-36.622-131.725-36.622-65.476 0-125.185 24.682-170.341 65.244-.003.006-.01.019-.01.019-2.868 2.577-4.497 6.26-4.497 10.116 0 12.118 14.652 18.187 23.221 9.618 16.583-16.583 43.47-16.583 60.053 0 22.071 22.071 52.005 34.47 83.218 34.47h26.248c22.781 0 41.248 18.467 41.248 41.248v2.414c0 10.94-4.346 21.431-12.081 29.167-16.108 16.108-16.108 42.225 0 58.333 1.572 1.572 3.218 3.017 4.916 4.373 20.168-.01 72.841 0 72.841 0 1.693-1.353 3.334-2.804 4.903-4.373z" fill="url(#SVGID_17_)"/><path d="m76.192 499.12c1.57 3.79 3.49 7.439 5.75 10.879-24.863 0-45.571.001-59.949 0-12.38-.001-22.073-10.63-20.972-22.961.57-6.387 1.376-12.706 2.411-18.948 1.35-8.2 5.6-15.3 11.59-20.35s13.72-8.04 22.03-8.04c9.42 0 17.95 3.82 24.11 9.99 6.18 6.17 9.99 14.7 9.99 24.11 0 8.77 1.74 17.37 5.04 25.32z" fill="url(#SVGID_18_)"/></g><path d="m1.055 486.664c-1.135 12.519 8.687 23.327 21.257 23.327 84.187.001 382.041.005 465.694.001 12.4-.001 22.077-10.66 20.972-23.011-3.578-40.006-16.407-77.344-36.314-109.88h-435.323c-19.854 32.45-32.669 69.677-36.286 109.563z" fill="url(#SVGID_19_)"/></g></g></svg>