<svg height="511pt" viewBox="-36 1 511 511.999" width="511pt" xmlns="http://www.w3.org/2000/svg"><path d="m125.21875 31.039062h-60.863281c-4.144531 0-7.507813 3.359376-7.507813 7.503907v55.976562c0 4.144531 3.363282 7.507813 7.507813 7.507813h60.863281c4.144531 0 7.507812-3.363282 7.507812-7.507813v-55.976562c0-4.144531-3.363281-7.503907-7.507812-7.503907zm0 0" fill="#a0a0a0"/><path d="m125.21875 31.039062h-27.019531v70.988282h27.019531c4.144531 0 7.507812-3.363282 7.507812-7.507813v-55.976562c0-4.144531-3.363281-7.503907-7.507812-7.503907zm0 0" fill="#8e8e8e"/><path d="m105.058594 396.726562h-23.246094c-4.144531 0-7.503906 3.359376-7.503906 7.503907v100.261719c0 2.855468 1.617187 5.464843 4.175781 6.730468 1.054687.519532 2.195313.777344 3.328125.777344 1.617188 0 3.222656-.523438 4.554688-1.542969l23.246093-17.746093c1.859375-1.421876 2.949219-3.628907 2.949219-5.96875v-82.511719c0-4.144531-3.359375-7.503907-7.503906-7.503907zm0 0" fill="#a0a0a0"/><path d="m388.417969 141.394531h-112.3125c-4.144531 0-7.503907 3.359375-7.503907 7.503907v46.246093c0 4.144531 3.359376 7.503907 7.503907 7.503907h112.3125c4.144531 0 7.503906-3.359376 7.503906-7.503907v-46.246093c0-4.144532-3.359375-7.503907-7.503906-7.503907zm0 0" fill="#a0a0a0"/><path d="m388.417969 141.394531h-27.019531v61.253907h27.019531c4.144531 0 7.503906-3.359376 7.503906-7.503907v-46.246093c0-4.144532-3.359375-7.503907-7.503906-7.503907zm0 0" fill="#8e8e8e"/><path d="m138.628906 354.953125c-1.398437-2.039063-3.714844-3.261719-6.191406-3.261719h-75.300781c-2.476563 0-4.789063 1.222656-6.191407 3.261719-1.398437 2.039063-1.703124 4.640625-.8125 6.949219l17.390626 45.03125c1.117187 2.894531 3.898437 4.800781 7.003906 4.800781h40.519531c3.101563 0 5.886719-1.90625 7.003906-4.800781l17.390625-45.03125c.890625-2.308594.585938-4.910156-.8125-6.949219zm0 0" fill="#e0e0e0"/><path d="m132.4375 351.691406h-24.121094l-23.1875 60.046875h29.917969c3.101563 0 5.886719-1.910156 7.003906-4.804687l17.390625-45.03125c.890625-2.308594.585938-4.90625-.8125-6.949219-1.402344-2.039063-3.714844-3.261719-6.191406-3.261719zm0 0" fill="#ccc"/><path d="m397.25 187.640625h-129.976562c-23.453126 0-42.53125 19.078125-42.53125 42.527344v254.304687c0 15.175782 12.34375 27.519532 27.519531 27.519532h160c15.175781 0 27.519531-12.34375 27.519531-27.519532v-254.304687c0-23.449219-19.078125-42.527344-42.53125-42.527344zm0 0" fill="#e0e0e0"/><path d="m397.25 187.640625h-34.035156c23.449218 0 42.527344 19.078125 42.527344 42.527344v254.304687c0 15.175782-12.34375 27.519532-27.519532 27.519532h34.039063c15.175781 0 27.519531-12.34375 27.519531-27.519532v-254.304687c0-23.449219-19.078125-42.527344-42.53125-42.527344zm0 0" fill="#ccc"/><path d="m157.761719 119.359375h-125.949219c-4.144531 0-7.503906 3.359375-7.503906 7.507813v212.066406c0 15.3125 12.457031 27.769531 27.769531 27.769531h85.417969c15.3125 0 27.769531-12.457031 27.769531-27.769531v-212.066406c0-4.148438-3.359375-7.507813-7.503906-7.507813zm0 0" fill="#cecece"/><path d="m157.761719 119.359375h-20.480469c4.144531 0 7.503906 3.359375 7.503906 7.507813v212.066406c0 15.3125-12.457031 27.769531-27.769531 27.769531h20.480469c15.3125 0 27.769531-12.457031 27.769531-27.769531v-212.066406c0-4.148438-3.359375-7.507813-7.503906-7.507813zm0 0" fill="#a0a0a0"/><path d="m24.308594 229.300781v109.632813c0 15.3125 12.457031 27.769531 27.769531 27.769531h85.417969c15.3125 0 27.769531-12.457031 27.769531-27.769531v-109.632813zm0 0" fill="#6bdafc"/><path d="m144.785156 229.300781v109.632813c0 15.3125-12.457031 27.769531-27.769531 27.769531h20.480469c15.3125 0 27.769531-12.457031 27.769531-27.769531v-109.632813zm0 0" fill="#1cc8e5"/><path d="m439.78125 240.667969h-215.039062v243.804687c0 15.175782 12.34375 27.519532 27.519531 27.519532h160c15.175781 0 27.519531-12.34375 27.519531-27.519532zm0 0" fill="#6bdafc"/><path d="m405.738281 80.089844h-146.953125c-9.65625 0-17.511718 7.855468-17.511718 17.511718v41.289063c0 9.65625 7.855468 17.515625 17.511718 17.515625h146.953125c9.65625 0 17.511719-7.859375 17.511719-17.515625v-41.289063c0-9.65625-7.855469-17.511718-17.511719-17.511718zm0 0" fill="#494949"/><path d="m405.738281 80.089844h-34.695312c9.65625 0 17.515625 7.855468 17.515625 17.511718v41.289063c0 9.65625-7.859375 17.515625-17.515625 17.515625h34.695312c9.65625 0 17.511719-7.859375 17.511719-17.515625v-41.289063c0-9.65625-7.855469-17.511718-17.511719-17.511718zm0 0" fill="#353535"/><path d="m405.742188 240.667969v243.804687c0 15.175782-12.34375 27.519532-27.519532 27.519532h34.039063c15.175781 0 27.519531-12.34375 27.519531-27.519532v-243.804687zm0 0" fill="#1cc8e5"/><path d="m224.742188 283.515625h215.039062v155.535156h-215.039062zm0 0" fill="#ffd039"/><path d="m381.050781 348.820312h-97.578125c-4.144531 0-7.507812-3.363281-7.507812-7.507812s3.363281-7.503906 7.507812-7.503906h97.578125c4.144531 0 7.507813 3.359375 7.507813 7.503906s-3.363282 7.507812-7.507813 7.507812zm0 0" fill="#494949"/><path d="m381.050781 383.835938h-97.578125c-4.144531 0-7.507812-3.359376-7.507812-7.503907s3.363281-7.507812 7.507812-7.507812h97.578125c4.144531 0 7.507813 3.363281 7.507813 7.507812s-3.363282 7.503907-7.507813 7.503907zm0 0" fill="#494949"/><path d="m132.726562 229.300781v-102.433593c0-4.148438-3.363281-7.507813-7.507812-7.507813h-60.863281c-4.144531 0-7.507813 3.359375-7.507813 7.507813v102.433593zm0 0" fill="#a0a0a0"/><path d="m125.21875 119.359375h-27.019531v109.941406h34.527343v-102.433593c0-4.148438-3.363281-7.507813-7.507812-7.507813zm0 0" fill="#8e8e8e"/><path d="m165.265625 308.390625h-40.046875c-4.144531 0-7.503906 3.359375-7.503906 7.507813 0 4.144531 3.359375 7.503906 7.503906 7.503906h40.046875zm0 0" fill="#1ca2e5"/><path d="m165.265625 265.089844h-40.046875c-4.144531 0-7.503906 3.359375-7.503906 7.503906 0 4.148438 3.359375 7.507812 7.503906 7.507812h40.046875zm0 0" fill="#1ca2e5"/><path d="m181.570312 87.015625h-173.566406c-4.144531 0-7.503906 3.359375-7.503906 7.503906v32.347657c0 4.144531 3.359375 7.503906 7.503906 7.503906h173.566406c4.144532 0 7.503907-3.359375 7.503907-7.503906v-32.347657c0-4.144531-3.359375-7.503906-7.503907-7.503906zm0 0" fill="#e0e0e0"/><path d="m181.570312 87.015625h-27.019531v47.355469h27.019531c4.144532 0 7.503907-3.359375 7.503907-7.503906v-32.347657c0-4.144531-3.359375-7.503906-7.503907-7.503906zm0 0" fill="#ccc"/><path d="m157.761719 0h-125.949219c-4.144531 0-7.503906 3.359375-7.503906 7.503906v31.039063c0 4.144531 3.359375 7.503906 7.503906 7.503906h125.949219c4.144531 0 7.503906-3.359375 7.503906-7.503906v-31.039063c0-4.144531-3.359375-7.503906-7.503906-7.503906zm0 0" fill="#e0e0e0"/><path d="m157.761719 0h-27.019531v46.046875h27.019531c4.144531 0 7.503906-3.359375 7.503906-7.503906v-31.039063c0-4.144531-3.359375-7.503906-7.503906-7.503906zm0 0" fill="#ccc"/><path d="m405.742188 283.515625h34.039062v155.535156h-34.039062zm0 0" fill="#ffae47"/></svg>