<svg id="Capa_1" enable-background="new 0 0 512 512" height="512" viewBox="0 0 512 512" width="512" xmlns="http://www.w3.org/2000/svg"><path d="m103.296 292.687h113.077v219.313h-113.077z" fill="#fcb143"/><path d="m103.296 292.687h113.077v33.769h-113.077z" fill="#fa9801"/><path d="m103.296 292.687h31.257v219.313h-31.257z" fill="#fa9801"/><path d="m293.078 113.348-15.654 15.654c-24.624 24.624-43.079 54.726-53.857 87.842l-9.999 30.74h-103.983c-5.46 0-10.513-1.728-14.652-4.662h-.009l-84.19-59.539c-11.186-7.907-14.032-23.188-6.621-34.561.177-.275.363-.55.55-.815 8.093-11.452 23.933-14.165 35.385-6.072l43.176 30.536c-1.799-19.9-6.125-39.524-12.888-58.396l-21.026-58.618c-4.733-13.198 2.119-27.735 15.317-32.469 13.198-4.733 27.735 2.127 32.46 15.326l23.658 65.93v-78.862c0-13.801 11.009-25.032 24.722-25.369.053-.009.115-.009.168-.009 14.227-.266 25.874 11.718 25.874 25.954v80.024l23.95-74.688c4.255-13.261 18.393-20.6 31.662-16.496.089.027.168.053.257.08 13.349 4.281 20.706 18.57 16.425 31.919l-20.795 64.822 34.171-34.171c9.919-9.91 25.989-9.91 35.899 0 9.919 9.911 9.919 25.99 0 35.9z" fill="#d38678"/><g fill="#c86e57"><path d="m293.078 77.449c-6.755-6.755-30.748 17.847-45.629 34.551-6.559 7.362-18.12 7.188-24.441-.38l34.171-34.171c9.919-9.91 25.989-9.91 35.899 0z"/><path d="m227.122 14.798c-10.074-2.441-27.38 54.14-35.685 83.679-2.413 8.583-12.451 12.362-19.928 7.505l23.95-74.688c4.255-13.26 18.393-20.6 31.663-16.496z"/><path d="m120.745 104.245v-78.863c0-13.801 11.009-25.032 24.722-25.369-7.523.876-8.192 61.558-8.039 92.673.042 8.643-8.603 14.629-16.683 11.559z"/><path d="m223.567 216.844-9.999 30.74-43.781 14.199-60.202-14.199c-5.46 0-10.513-1.728-14.652-4.662h-.009l-84.19-59.539c-11.186-7.907-14.032-23.188-6.621-34.561-6.409 15.37 133.243 109.292 219.454 68.022z"/></g><path d="m99.631 247.583h119.555v65.255h-119.555z" fill="#fcb143"/><path d="m99.631 247.583h41.462v65.255h-41.462z" fill="#fa9801"/><path d="m163.815 185.69c-19.282-24.639-43.425-30.089-60.433-30.288-12.407-32.633-47.644-127.729-38.755-132.413-13.199 4.733-20.051 19.27-15.317 32.469l21.025 58.617c6.763 18.871 11.089 38.496 12.888 58.396 0 0 3.831-2.062 7.343-2.688 14.381-2.562 41.677-2.703 62.701 24.161 1.32 1.688 3.289 2.57 5.278 2.57 1.443-.001 2.897-.465 4.122-1.424 2.914-2.279 3.427-6.487 1.148-9.4z" fill="#c86e57"/><path d="m314.776 449.45h113.077v62.55h-113.077z" fill="#0a93a3"/><path d="m314.776 449.45h113.077v33.769h-113.077z" fill="#046b74"/><path d="m314.776 449.45h31.257v62.55h-31.257z" fill="#046b74"/><path d="m504.559 270.11-15.654 15.654c-24.624 24.624-43.079 54.726-53.857 87.842l-9.999 30.74h-103.983c-5.46 0-10.513-1.728-14.652-4.662h-.009l-84.19-59.539c-11.186-7.907-14.032-23.188-6.621-34.561.177-.275.363-.55.55-.815 8.093-11.452 23.933-14.165 35.385-6.072l43.176 30.536c-1.799-19.9-6.125-39.524-12.888-58.396l-21.025-58.617c-4.733-13.198 2.118-27.735 15.317-32.469 13.198-4.733 27.735 2.127 32.46 15.326l23.658 65.93v-78.863c0-13.801 11.009-25.032 24.721-25.369.053-.009.115-.009.168-.009 14.227-.266 25.874 11.718 25.874 25.954v80.024l23.95-74.688c4.255-13.261 18.393-20.6 31.662-16.496.089.027.168.053.257.08 13.349 4.281 20.706 18.57 16.425 31.919l-20.795 64.822 34.171-34.171c9.919-9.91 25.989-9.91 35.899 0 9.919 9.911 9.919 25.99 0 35.9z" fill="#fcd0a3"/><path d="m504.559 234.211c-6.755-6.755-30.748 17.847-45.629 34.551-6.559 7.362-18.12 7.188-24.441-.38l34.171-34.171c9.919-9.91 25.989-9.91 35.899 0z" fill="#ffb983"/><path d="m438.602 171.561c-10.074-2.441-27.38 54.14-35.685 83.679-2.413 8.583-12.451 12.362-19.928 7.505l23.95-74.688c4.256-13.261 18.394-20.6 31.663-16.496z" fill="#ffb983"/><path d="m332.226 261.007v-78.863c0-13.801 11.009-25.032 24.721-25.369-7.523.876-8.192 61.558-8.039 92.672.042 8.644-8.603 14.63-16.682 11.56z" fill="#ffb983"/><path d="m435.048 373.606-9.999 30.74-52.207 23.237-51.776-23.237c-5.46 0-10.513-1.728-14.652-4.662h-.009l-84.19-59.539c-11.186-7.907-14.032-23.188-6.621-34.561-6.409 15.37 133.243 109.292 219.454 68.022z" fill="#ffb983"/><path d="m311.111 404.345h119.555v65.255h-119.555z" fill="#0a93a3"/><path d="m311.111 404.345h41.462v65.255h-41.462z" fill="#046b74"/><path d="m375.296 342.453c-19.282-24.639-43.425-30.089-60.433-30.288-12.408-32.633-47.644-127.729-38.755-132.414-13.199 4.733-20.051 19.27-15.317 32.469l21.025 58.617c6.763 18.871 11.089 38.496 12.888 58.396 0 0 3.831-2.062 7.343-2.688 14.381-2.562 41.677-2.703 62.701 24.161 1.32 1.688 3.289 2.57 5.278 2.57 1.443-.001 2.897-.465 4.122-1.424 2.914-2.279 3.427-6.487 1.148-9.399z" fill="#ffb983"/></svg>